<?xml version="1.0" standalone="no"?>
 <!DOCTYPE svg PUBLIC "-//W3C//DTD SVG 1.1//EN" 
 "http://www.w3.org/Graphics/SVG/1.1/DTD/svg11.dtd"> 
<svg xmlns="http://www.w3.org/2000/svg" version="1.1" 
    width="29.7002cm" height="21.0007cm" viewBox="0 0 116930 82680 ">
<title>SVG Picture created as dc-amplification.svg date 2014/09/17 20:24:37 </title>
  <desc>Picture generated by Eeschema-SVG </desc>
<g style="fill:#000000; fill-opacity:1;stroke:#000000; stroke-opacity:1;
stroke-linecap:round; stroke-linejoin:round; "
 transform="translate(0 0) scale(1 1)">
</g>
<g style="fill:#A00000; fill-opacity:0.0; 
stroke:#A00000; stroke-width:100; stroke-opacity:1; 
stroke-linecap:round; stroke-linejoin:round;">
<path d="M4000 4000
L112930 4000
L112930 78680
L4000 78680
L4000 4000
" />
<path d="M4700 4700
L112230 4700
L112230 77980
L4700 77980
L4700 4700
" />
<path d="M25780 4000
L25780 4700
" />
<path d="M15030 4550
L14750 4550
" />
<path d="M14890 4550
L14890 4050
L14840 4120
L14790 4170
L14750 4200
" />
<path d="M25780 78680
L25780 77980
" />
<path d="M15030 78530
L14750 78530
" />
<path d="M14890 78530
L14890 78030
L14840 78100
L14790 78150
L14750 78180
" />
<path d="M47560 4000
L47560 4700
" />
<path d="M36530 4100
L36550 4080
L36600 4050
L36720 4050
L36760 4080
L36790 4100
L36810 4150
L36810 4200
L36790 4270
L36500 4550
L36810 4550
" />
<path d="M47560 78680
L47560 77980
" />
<path d="M36530 78080
L36550 78060
L36600 78030
L36720 78030
L36760 78060
L36790 78080
L36810 78130
L36810 78180
L36790 78250
L36500 78530
L36810 78530
" />
<path d="M69340 4000
L69340 4700
" />
<path d="M58280 4050
L58590 4050
L58420 4240
L58500 4240
L58540 4270
L58570 4290
L58590 4340
L58590 4460
L58570 4500
L58540 4530
L58500 4550
L58350 4550
L58310 4530
L58280 4500
" />
<path d="M69340 78680
L69340 77980
" />
<path d="M58280 78030
L58590 78030
L58420 78220
L58500 78220
L58540 78250
L58570 78270
L58590 78320
L58590 78440
L58570 78480
L58540 78510
L58500 78530
L58350 78530
L58310 78510
L58280 78480
" />
<path d="M91120 4000
L91120 4700
" />
<path d="M80320 4220
L80320 4550
" />
<path d="M80200 4030
L80090 4390
L80390 4390
" />
<path d="M91120 78680
L91120 77980
" />
<path d="M80320 78200
L80320 78530
" />
<path d="M80200 78010
L80090 78370
L80390 78370
" />
<path d="M102130 4050
L101890 4050
L101870 4290
L101890 4270
L101940 4240
L102060 4240
L102100 4270
L102130 4290
L102150 4340
L102150 4460
L102130 4500
L102100 4530
L102060 4550
L101940 4550
L101890 4530
L101870 4500
" />
<path d="M102130 78030
L101890 78030
L101870 78270
L101890 78250
L101940 78220
L102060 78220
L102100 78250
L102130 78270
L102150 78320
L102150 78440
L102130 78480
L102100 78510
L102060 78530
L101940 78530
L101890 78510
L101870 78480
" />
<path d="M4000 28890
L4700 28890
" />
<path d="M4240 16510
L4470 16510
" />
<path d="M4190 16650
L4350 16150
L4520 16650
" />
<path d="M112930 28890
L112230 28890
" />
<path d="M112470 16510
L112700 16510
" />
<path d="M112420 16650
L112580 16150
L112750 16650
" />
<path d="M4000 53780
L4700 53780
" />
<path d="M4390 41280
L4460 41300
L4480 41330
L4500 41380
L4500 41450
L4480 41490
L4460 41520
L4410 41540
L4220 41540
L4220 41040
L4390 41040
L4430 41070
L4460 41090
L4480 41140
L4480 41190
L4460 41230
L4430 41260
L4390 41280
L4220 41280
" />
<path d="M112930 53780
L112230 53780
" />
<path d="M112620 41280
L112690 41300
L112710 41330
L112730 41380
L112730 41450
L112710 41490
L112690 41520
L112640 41540
L112450 41540
L112450 41040
L112620 41040
L112660 41070
L112690 41090
L112710 41140
L112710 41190
L112690 41230
L112660 41260
L112620 41280
L112450 41280
" />
<path d="M4500 66380
L4480 66410
L4410 66430
L4360 66430
L4290 66410
L4240 66360
L4220 66310
L4200 66220
L4200 66150
L4220 66050
L4240 66000
L4290 65960
L4360 65930
L4410 65930
L4480 65960
L4500 65980
" />
<path d="M112730 66380
L112710 66410
L112640 66430
L112590 66430
L112520 66410
L112470 66360
L112450 66310
L112430 66220
L112430 66150
L112450 66050
L112470 66000
L112520 65960
L112590 65930
L112640 65930
L112710 65960
L112730 65980
" />
<path d="M79380 76420
L79450 75820
L79600 75820
L79680 75850
L79730 75910
L79750 75970
L79770 76080
L79760 76170
L79720 76280
L79680 76340
L79610 76390
L79530 76420
L79380 76420
" />
<path d="M80240 76420
L80280 76110
L80250 76050
L80200 76020
L80090 76020
L80020 76050
" />
<path d="M80240 76390
L80180 76420
L80040 76420
L79980 76390
L79960 76340
L79970 76280
L80000 76220
L80070 76190
L80210 76190
L80270 76170
" />
<path d="M80490 76020
L80720 76020
" />
<path d="M80590 75820
L80530 76340
L80550 76390
L80610 76420
L80670 76420
" />
<path d="M81090 76390
L81030 76420
L80920 76420
L80860 76390
L80840 76340
L80870 76110
L80900 76050
L80970 76020
L81080 76020
L81130 76050
L81160 76110
L81150 76170
L80850 76220
" />
<path d="M81370 76370
L81400 76390
L81370 76420
L81340 76390
L81370 76370
L81370 76420
" />
<path d="M81410 76050
L81440 76080
L81410 76110
L81380 76080
L81410 76050
L81410 76110
" />
<path d="M70970 77620
L70970 77020
" />
<path d="M71320 77620
L71060 77280
" />
<path d="M71320 77020
L70970 77370
" />
<path d="M71570 77620
L71570 77220
" />
<path d="M71570 77020
L71540 77050
L71570 77080
L71600 77050
L71570 77020
L71570 77080
" />
<path d="M72210 77570
L72180 77590
L72090 77620
L72030 77620
L71950 77590
L71890 77540
L71860 77480
L71830 77370
L71830 77280
L71860 77170
L71890 77110
L71950 77050
L72030 77020
L72090 77020
L72180 77050
L72210 77080
" />
<path d="M72720 77620
L72720 77310
L72690 77250
L72630 77220
L72520 77220
L72460 77250
" />
<path d="M72720 77590
L72660 77620
L72520 77620
L72460 77590
L72430 77540
L72430 77480
L72460 77420
L72520 77390
L72660 77390
L72720 77370
" />
<path d="M73260 77620
L73260 77020
" />
<path d="M73260 77590
L73200 77620
L73090 77620
L73030 77590
L73000 77570
L72970 77510
L72970 77340
L73000 77280
L73030 77250
L73090 77220
L73200 77220
L73260 77250
" />
<path d="M74000 77310
L74200 77310
" />
<path d="M74290 77620
L74000 77620
L74000 77020
L74290 77020
" />
<path d="M74540 77570
L74570 77590
L74540 77620
L74510 77590
L74540 77570
L74540 77620
" />
<path d="M74830 77620
L74830 77020
L74980 77020
L75060 77050
L75120 77110
L75150 77170
L75180 77280
L75180 77370
L75150 77480
L75120 77540
L75060 77590
L74980 77620
L74830 77620
" />
<path d="M75430 77570
L75460 77590
L75430 77620
L75400 77590
L75430 77570
L75430 77620
" />
<path d="M75690 77450
L75980 77450
" />
<path d="M75640 77620
L75840 77020
L76040 77620
" />
<path d="M76230 77570
L76260 77590
L76230 77620
L76200 77590
L76230 77570
L76230 77620
" />
<path d="M104530 76420
L104360 76140
" />
<path d="M104180 76420
L104250 75820
L104480 75820
L104540 75850
L104570 75880
L104590 75940
L104580 76020
L104540 76080
L104510 76110
L104440 76140
L104210 76140
" />
<path d="M105010 76390
L104950 76420
L104840 76420
L104780 76390
L104760 76340
L104790 76110
L104820 76050
L104890 76020
L105000 76020
L105050 76050
L105080 76110
L105070 76170
L104770 76220
" />
<path d="M105290 76020
L105380 76420
L105570 76020
" />
<path d="M105750 76370
L105780 76390
L105750 76420
L105720 76390
L105750 76370
L105750 76420
" />
<path d="M105790 76050
L105820 76080
L105790 76110
L105760 76080
L105790 76050
L105790 76110
" />
<path d="M70940 76390
L71030 76420
L71170 76420
L71230 76390
L71260 76370
L71290 76310
L71290 76250
L71260 76190
L71230 76170
L71170 76140
L71060 76110
L71000 76080
L70970 76050
L70940 75990
L70940 75940
L70970 75880
L71000 75850
L71060 75820
L71200 75820
L71290 75850
" />
<path d="M71540 76420
L71540 76020
" />
<path d="M71540 75820
L71510 75850
L71540 75880
L71570 75850
L71540 75820
L71540 75880
" />
<path d="M71780 76020
L72090 76020
L71780 76420
L72090 76420
" />
<path d="M72550 76390
L72490 76420
L72380 76420
L72320 76390
L72290 76340
L72290 76110
L72320 76050
L72380 76020
L72490 76020
L72550 76050
L72580 76110
L72580 76170
L72290 76220
" />
<path d="M72830 76370
L72860 76390
L72830 76420
L72800 76390
L72830 76370
L72830 76420
" />
<path d="M72830 76050
L72860 76080
L72830 76110
L72800 76080
L72830 76050
L72830 76110
" />
<path d="M73550 76250
L73840 76250
" />
<path d="M73500 76420
L73700 75820
L73900 76420
" />
<path d="M74350 76020
L74350 76420
" />
<path d="M74210 75790
L74060 76220
L74440 76220
" />
<path d="M104170 77620
L104170 77020
" />
<path d="M104720 77620
L104720 77020
" />
<path d="M104720 77590
L104660 77620
L104550 77620
L104490 77590
L104460 77570
L104430 77510
L104430 77340
L104460 77280
L104490 77250
L104550 77220
L104660 77220
L104720 77250
" />
<path d="M105000 77570
L105030 77590
L105000 77620
L104970 77590
L105000 77570
L105000 77620
" />
<path d="M105000 77250
L105030 77280
L105000 77310
L104970 77280
L105000 77250
L105000 77310
" />
<path d="M106070 77620
L105720 77620
" />
<path d="M105900 77620
L105900 77020
L105840 77110
L105780 77170
L105720 77190
" />
<path d="M106750 76990
L106240 77770
" />
<path d="M107270 77620
L106920 77620
" />
<path d="M107100 77620
L107100 77020
L107040 77110
L106980 77170
L106920 77190
" />
<path d="M70970 74620
L71310 74620
" />
<path d="M71070 75220
L71140 74620
" />
<path d="M71440 75220
L71490 74820
" />
<path d="M71510 74620
L71480 74650
L71510 74680
L71540 74650
L71510 74620
L71510 74680
" />
<path d="M71700 74820
L71930 74820
" />
<path d="M71800 74620
L71740 75140
L71760 75190
L71820 75220
L71880 75220
" />
<path d="M72160 75220
L72100 75190
L72080 75140
L72140 74620
" />
<path d="M72610 75190
L72550 75220
L72440 75220
L72380 75190
L72360 75140
L72390 74910
L72420 74850
L72490 74820
L72600 74820
L72650 74850
L72680 74910
L72670 74970
L72370 75020
" />
<path d="M72890 75170
L72920 75190
L72890 75220
L72860 75190
L72890 75170
L72890 75220
" />
<path d="M72930 74850
L72960 74880
L72930 74910
L72900 74880
L72930 74850
L72930 74910
" />
<path d="M73690 74820
L73640 75220
" />
<path d="M73680 74880
L73710 74850
L73780 74820
L73860 74820
L73910 74850
L73940 74910
L73900 75220
" />
<path d="M74270 75220
L74210 75190
L74180 75170
L74160 75110
L74180 74940
L74220 74880
L74250 74850
L74320 74820
L74400 74820
L74450 74850
L74480 74880
L74500 74940
L74480 75110
L74440 75170
L74410 75190
L74350 75220
L74270 75220
" />
<path d="M74770 74820
L74720 75220
" />
<path d="M74760 74880
L74790 74850
L74860 74820
L74940 74820
L74990 74850
L75020 74910
L74980 75220
" />
<path d="M75520 75220
L75560 74910
L75530 74850
L75480 74820
L75370 74820
L75300 74850
" />
<path d="M75520 75190
L75460 75220
L75320 75220
L75260 75190
L75240 75140
L75250 75080
L75280 75020
L75350 74990
L75490 74990
L75550 74970
" />
<path d="M75800 75220
L75850 74820
" />
<path d="M75840 74880
L75870 74850
L75940 74820
L76020 74820
L76070 74850
L76100 74910
L76060 75220
" />
<path d="M76100 74910
L76130 74850
L76200 74820
L76280 74820
L76330 74850
L76360 74910
L76320 75220
" />
<path d="M76830 75190
L76770 75220
L76660 75220
L76600 75190
L76580 75140
L76610 74910
L76640 74850
L76710 74820
L76820 74820
L76870 74850
L76900 74910
L76890 74970
L76590 75020
" />
<path d="M77110 75170
L77140 75190
L77110 75220
L77080 75190
L77110 75170
L77110 75220
" />
<path d="M77370 75190
L77430 75220
L77550 75220
L77600 75190
L77640 75140
L77640 75110
L77620 75050
L77570 75020
L77480 75020
L77430 74990
L77400 74940
L77410 74910
L77440 74850
L77510 74820
L77600 74820
L77640 74850
" />
<path d="M78150 75190
L78090 75220
L77980 75220
L77920 75190
L77890 75170
L77870 75110
L77890 74940
L77930 74880
L77960 74850
L78030 74820
L78140 74820
L78190 74850
" />
<path d="M78400 75220
L78470 74620
" />
<path d="M78660 75220
L78700 74910
L78670 74850
L78620 74820
L78540 74820
L78470 74850
L78440 74880
" />
<path d="M71170 72510
L70970 72510
" />
<path d="M70970 72820
L70970 72220
L71260 72220
" />
<path d="M71480 72820
L71480 72420
" />
<path d="M71480 72220
L71450 72250
L71480 72280
L71510 72250
L71480 72220
L71480 72280
" />
<path d="M71860 72820
L71800 72790
L71770 72740
L71770 72220
" />
<path d="M72310 72790
L72250 72820
L72140 72820
L72080 72790
L72050 72740
L72050 72510
L72080 72450
L72140 72420
L72250 72420
L72310 72450
L72340 72510
L72340 72570
L72050 72620
" />
<path d="M72590 72770
L72620 72790
L72590 72820
L72560 72790
L72590 72770
L72590 72820
" />
<path d="M72590 72450
L72620 72480
L72590 72510
L72560 72480
L72590 72450
L72590 72510
" />
<path d="M73600 72820
L73600 72220
" />
<path d="M73600 72790
L73540 72820
L73430 72820
L73370 72790
L73340 72770
L73310 72710
L73310 72540
L73340 72480
L73370 72450
L73430 72420
L73540 72420
L73600 72450
" />
<path d="M74140 72790
L74080 72820
L73970 72820
L73910 72790
L73880 72770
L73850 72710
L73850 72540
L73880 72480
L73910 72450
L73970 72420
L74080 72420
L74140 72450
" />
<path d="M74390 72590
L74850 72590
" />
<path d="M75390 72820
L75390 72510
L75360 72450
L75300 72420
L75190 72420
L75130 72450
" />
<path d="M75390 72790
L75330 72820
L75190 72820
L75130 72790
L75100 72740
L75100 72680
L75130 72620
L75190 72590
L75330 72590
L75390 72570
" />
<path d="M75670 72820
L75670 72420
" />
<path d="M75670 72480
L75700 72450
L75760 72420
L75840 72420
L75900 72450
L75930 72510
L75930 72820
" />
<path d="M75930 72510
L75960 72450
L76020 72420
L76100 72420
L76160 72450
L76190 72510
L76190 72820
" />
<path d="M76470 72420
L76470 73020
" />
<path d="M76470 72450
L76530 72420
L76640 72420
L76700 72450
L76730 72480
L76760 72540
L76760 72710
L76730 72770
L76700 72790
L76640 72820
L76530 72820
L76470 72790
" />
<path d="M77100 72820
L77040 72790
L77010 72740
L77010 72220
" />
<path d="M77320 72820
L77320 72420
" />
<path d="M77320 72220
L77290 72250
L77320 72280
L77350 72250
L77320 72220
L77320 72280
" />
<path d="M77530 72420
L77760 72420
" />
<path d="M77610 72820
L77610 72310
L77640 72250
L77700 72220
L77760 72220
" />
<path d="M77950 72820
L77950 72420
" />
<path d="M77950 72220
L77920 72250
L77950 72280
L77980 72250
L77950 72220
L77950 72280
" />
<path d="M78500 72790
L78440 72820
L78330 72820
L78270 72790
L78240 72770
L78210 72710
L78210 72540
L78240 72480
L78270 72450
L78330 72420
L78440 72420
L78500 72450
" />
<path d="M79010 72820
L79010 72510
L78980 72450
L78920 72420
L78810 72420
L78750 72450
" />
<path d="M79010 72790
L78950 72820
L78810 72820
L78750 72790
L78720 72740
L78720 72680
L78750 72620
L78810 72590
L78950 72590
L79010 72570
" />
<path d="M79210 72420
L79440 72420
" />
<path d="M79290 72220
L79290 72740
L79320 72790
L79380 72820
L79440 72820
" />
<path d="M79630 72820
L79630 72420
" />
<path d="M79630 72220
L79600 72250
L79630 72280
L79660 72250
L79630 72220
L79630 72280
" />
<path d="M80010 72820
L79950 72790
L79920 72770
L79890 72710
L79890 72540
L79920 72480
L79950 72450
L80010 72420
L80090 72420
L80150 72450
L80180 72480
L80210 72540
L80210 72710
L80180 72770
L80150 72790
L80090 72820
L80010 72820
" />
<path d="M80460 72420
L80460 72820
" />
<path d="M80460 72480
L80490 72450
L80550 72420
L80630 72420
L80690 72450
L80720 72510
L80720 72820
" />
<path d="M81000 72770
L81030 72790
L81000 72820
L80970 72790
L81000 72770
L81000 72820
" />
<path d="M81260 72790
L81320 72820
L81440 72820
L81490 72790
L81520 72740
L81520 72710
L81490 72650
L81440 72620
L81350 72620
L81290 72590
L81260 72540
L81260 72510
L81290 72450
L81350 72420
L81440 72420
L81490 72450
" />
<path d="M82040 72790
L81980 72820
L81870 72820
L81810 72790
L81780 72770
L81750 72710
L81750 72540
L81780 72480
L81810 72450
L81870 72420
L81980 72420
L82040 72450
" />
<path d="M82290 72820
L82290 72220
" />
<path d="M82550 72820
L82550 72510
L82520 72450
L82460 72420
L82380 72420
L82320 72450
L82290 72480
" />
<path d="M70940 73990
L71030 74020
L71170 74020
L71230 73990
L71260 73970
L71290 73910
L71290 73850
L71260 73790
L71230 73770
L71170 73740
L71060 73710
L71000 73680
L70970 73650
L70940 73590
L70940 73540
L70970 73480
L71000 73450
L71060 73420
L71200 73420
L71290 73450
" />
<path d="M71540 74020
L71540 73420
" />
<path d="M71800 74020
L71800 73710
L71770 73650
L71710 73620
L71630 73620
L71570 73650
L71540 73680
" />
<path d="M72310 73990
L72250 74020
L72140 74020
L72080 73990
L72050 73940
L72050 73710
L72080 73650
L72140 73620
L72250 73620
L72310 73650
L72340 73710
L72340 73770
L72050 73820
" />
<path d="M72820 73990
L72760 74020
L72650 74020
L72590 73990
L72560 73940
L72560 73710
L72590 73650
L72650 73620
L72760 73620
L72820 73650
L72850 73710
L72850 73770
L72560 73820
" />
<path d="M73020 73620
L73250 73620
" />
<path d="M73100 73420
L73100 73940
L73130 73990
L73190 74020
L73250 74020
" />
<path d="M73440 73970
L73470 73990
L73440 74020
L73410 73990
L73440 73970
L73440 74020
" />
<path d="M73440 73650
L73470 73680
L73440 73710
L73410 73680
L73440 73650
L73440 73710
" />
<path d="M74620 73390
L74110 74170
" />
<path d="M70230 71980
L70230 77980
" />
<path d="M70230 71980
L112230 71980
" />
<path d="M70230 71980
L112230 71980
" />
<path d="M70230 74380
L112230 74380
" />
<path d="M103430 75580
L103430 77980
" />
<path d="M70230 76780
L112230 76780
" />
<path d="M70230 75580
L112230 75580
" />
<path d="M76830 75580
L76830 76780
" />
</g> 
</svg>
