<?xml version="1.0" standalone="no"?>
 <!DOCTYPE svg PUBLIC "-//W3C//DTD SVG 1.1//EN" 
 "http://www.w3.org/Graphics/SVG/1.1/DTD/svg11.dtd"> 
<svg xmlns="http://www.w3.org/2000/svg" version="1.1" 
    width="29.7002cm" height="21.0007cm" viewBox="0 0 116930 82680 ">
<title>SVG Picture created as dc-amplification.svg date 2014/09/17 21:29:07 </title>
  <desc>Picture generated by Eeschema-SVG </desc>
<g style="fill:#000000; fill-opacity:1;stroke:#000000; stroke-opacity:1;
stroke-linecap:round; stroke-linejoin:round; "
 transform="translate(0 0) scale(1 1)">
</g>
<g style="fill:#A00000; fill-opacity:0.0; 
stroke:#A00000; stroke-width:100; stroke-opacity:1; 
stroke-linecap:round; stroke-linejoin:round;">
<path d="M4000 4000
L112930 4000
L112930 78680
L4000 78680
L4000 4000
" />
<path d="M4700 4700
L112230 4700
L112230 77980
L4700 77980
L4700 4700
" />
<path d="M25780 4000
L25780 4700
" />
<path d="M15030 4550
L14750 4550
" />
<path d="M14890 4550
L14890 4050
L14840 4120
L14790 4170
L14750 4200
" />
<path d="M25780 78680
L25780 77980
" />
<path d="M15030 78530
L14750 78530
" />
<path d="M14890 78530
L14890 78030
L14840 78100
L14790 78150
L14750 78180
" />
<path d="M47560 4000
L47560 4700
" />
<path d="M36530 4100
L36550 4080
L36600 4050
L36720 4050
L36760 4080
L36790 4100
L36810 4150
L36810 4200
L36790 4270
L36500 4550
L36810 4550
" />
<path d="M47560 78680
L47560 77980
" />
<path d="M36530 78080
L36550 78060
L36600 78030
L36720 78030
L36760 78060
L36790 78080
L36810 78130
L36810 78180
L36790 78250
L36500 78530
L36810 78530
" />
<path d="M69340 4000
L69340 4700
" />
<path d="M58280 4050
L58590 4050
L58420 4240
L58500 4240
L58540 4270
L58570 4290
L58590 4340
L58590 4460
L58570 4500
L58540 4530
L58500 4550
L58350 4550
L58310 4530
L58280 4500
" />
<path d="M69340 78680
L69340 77980
" />
<path d="M58280 78030
L58590 78030
L58420 78220
L58500 78220
L58540 78250
L58570 78270
L58590 78320
L58590 78440
L58570 78480
L58540 78510
L58500 78530
L58350 78530
L58310 78510
L58280 78480
" />
<path d="M91120 4000
L91120 4700
" />
<path d="M80320 4220
L80320 4550
" />
<path d="M80200 4030
L80090 4390
L80390 4390
" />
<path d="M91120 78680
L91120 77980
" />
<path d="M80320 78200
L80320 78530
" />
<path d="M80200 78010
L80090 78370
L80390 78370
" />
<path d="M102130 4050
L101890 4050
L101870 4290
L101890 4270
L101940 4240
L102060 4240
L102100 4270
L102130 4290
L102150 4340
L102150 4460
L102130 4500
L102100 4530
L102060 4550
L101940 4550
L101890 4530
L101870 4500
" />
<path d="M102130 78030
L101890 78030
L101870 78270
L101890 78250
L101940 78220
L102060 78220
L102100 78250
L102130 78270
L102150 78320
L102150 78440
L102130 78480
L102100 78510
L102060 78530
L101940 78530
L101890 78510
L101870 78480
" />
<path d="M4000 28890
L4700 28890
" />
<path d="M4240 16510
L4470 16510
" />
<path d="M4190 16650
L4350 16150
L4520 16650
" />
<path d="M112930 28890
L112230 28890
" />
<path d="M112470 16510
L112700 16510
" />
<path d="M112420 16650
L112580 16150
L112750 16650
" />
<path d="M4000 53780
L4700 53780
" />
<path d="M4390 41280
L4460 41300
L4480 41330
L4500 41380
L4500 41450
L4480 41490
L4460 41520
L4410 41540
L4220 41540
L4220 41040
L4390 41040
L4430 41070
L4460 41090
L4480 41140
L4480 41190
L4460 41230
L4430 41260
L4390 41280
L4220 41280
" />
<path d="M112930 53780
L112230 53780
" />
<path d="M112620 41280
L112690 41300
L112710 41330
L112730 41380
L112730 41450
L112710 41490
L112690 41520
L112640 41540
L112450 41540
L112450 41040
L112620 41040
L112660 41070
L112690 41090
L112710 41140
L112710 41190
L112690 41230
L112660 41260
L112620 41280
L112450 41280
" />
<path d="M4500 66380
L4480 66410
L4410 66430
L4360 66430
L4290 66410
L4240 66360
L4220 66310
L4200 66220
L4200 66150
L4220 66050
L4240 66000
L4290 65960
L4360 65930
L4410 65930
L4480 65960
L4500 65980
" />
<path d="M112730 66380
L112710 66410
L112640 66430
L112590 66430
L112520 66410
L112470 66360
L112450 66310
L112430 66220
L112430 66150
L112450 66050
L112470 66000
L112520 65960
L112590 65930
L112640 65930
L112710 65960
L112730 65980
" />
<path d="M79380 76420
L79450 75820
L79600 75820
L79680 75850
L79730 75910
L79750 75970
L79770 76080
L79760 76170
L79720 76280
L79680 76340
L79610 76390
L79530 76420
L79380 76420
" />
<path d="M80240 76420
L80280 76110
L80250 76050
L80200 76020
L80090 76020
L80020 76050
" />
<path d="M80240 76390
L80180 76420
L80040 76420
L79980 76390
L79960 76340
L79970 76280
L80000 76220
L80070 76190
L80210 76190
L80270 76170
" />
<path d="M80490 76020
L80720 76020
" />
<path d="M80590 75820
L80530 76340
L80550 76390
L80610 76420
L80670 76420
" />
<path d="M81090 76390
L81030 76420
L80920 76420
L80860 76390
L80840 76340
L80870 76110
L80900 76050
L80970 76020
L81080 76020
L81130 76050
L81160 76110
L81150 76170
L80850 76220
" />
<path d="M81370 76370
L81400 76390
L81370 76420
L81340 76390
L81370 76370
L81370 76420
" />
<path d="M81410 76050
L81440 76080
L81410 76110
L81380 76080
L81410 76050
L81410 76110
" />
<path d="M82440 76420
L82090 76420
" />
<path d="M82270 76420
L82340 75820
L82270 75910
L82200 75970
L82140 75990
" />
<path d="M82710 75820
L83110 75820
L82780 76420
" />
<path d="M83690 76390
L83750 76420
L83870 76420
L83920 76390
L83960 76340
L83960 76310
L83940 76250
L83890 76220
L83800 76220
L83750 76190
L83720 76140
L83730 76110
L83760 76050
L83830 76020
L83920 76020
L83960 76050
" />
<path d="M84440 76390
L84380 76420
L84270 76420
L84210 76390
L84190 76340
L84220 76110
L84250 76050
L84320 76020
L84430 76020
L84480 76050
L84510 76110
L84500 76170
L84200 76220
" />
<path d="M84770 76020
L84690 76620
" />
<path d="M84760 76050
L84830 76020
L84940 76020
L84990 76050
L85020 76080
L85040 76140
L85020 76310
L84980 76370
L84950 76390
L84890 76420
L84780 76420
L84720 76390
" />
<path d="M85760 75880
L85790 75850
L85850 75820
L85990 75820
L86050 75850
L86080 75880
L86100 75940
L86090 75990
L86050 76080
L85670 76420
L86040 76420
" />
<path d="M86480 75820
L86530 75820
L86590 75850
L86620 75880
L86640 75940
L86650 76050
L86640 76190
L86590 76310
L86550 76370
L86520 76390
L86460 76420
L86410 76420
L86350 76390
L86320 76370
L86300 76310
L86290 76190
L86300 76050
L86350 75940
L86390 75880
L86420 75850
L86480 75820
" />
<path d="M87180 76420
L86830 76420
" />
<path d="M87010 76420
L87080 75820
L87010 75910
L86940 75970
L86880 75990
" />
<path d="M87740 76020
L87690 76420
" />
<path d="M87630 75790
L87420 76220
L87800 76220
" />
<path d="M70970 77620
L70970 77020
" />
<path d="M71320 77620
L71060 77280
" />
<path d="M71320 77020
L70970 77370
" />
<path d="M71570 77620
L71570 77220
" />
<path d="M71570 77020
L71540 77050
L71570 77080
L71600 77050
L71570 77020
L71570 77080
" />
<path d="M72210 77570
L72180 77590
L72090 77620
L72030 77620
L71950 77590
L71890 77540
L71860 77480
L71830 77370
L71830 77280
L71860 77170
L71890 77110
L71950 77050
L72030 77020
L72090 77020
L72180 77050
L72210 77080
" />
<path d="M72720 77620
L72720 77310
L72690 77250
L72630 77220
L72520 77220
L72460 77250
" />
<path d="M72720 77590
L72660 77620
L72520 77620
L72460 77590
L72430 77540
L72430 77480
L72460 77420
L72520 77390
L72660 77390
L72720 77370
" />
<path d="M73260 77620
L73260 77020
" />
<path d="M73260 77590
L73200 77620
L73090 77620
L73030 77590
L73000 77570
L72970 77510
L72970 77340
L73000 77280
L73030 77250
L73090 77220
L73200 77220
L73260 77250
" />
<path d="M74000 77310
L74200 77310
" />
<path d="M74290 77620
L74000 77620
L74000 77020
L74290 77020
" />
<path d="M74540 77570
L74570 77590
L74540 77620
L74510 77590
L74540 77570
L74540 77620
" />
<path d="M74830 77620
L74830 77020
L74980 77020
L75060 77050
L75120 77110
L75150 77170
L75180 77280
L75180 77370
L75150 77480
L75120 77540
L75060 77590
L74980 77620
L74830 77620
" />
<path d="M75430 77570
L75460 77590
L75430 77620
L75400 77590
L75430 77570
L75430 77620
" />
<path d="M75690 77450
L75980 77450
" />
<path d="M75640 77620
L75840 77020
L76040 77620
" />
<path d="M76230 77570
L76260 77590
L76230 77620
L76200 77590
L76230 77570
L76230 77620
" />
<path d="M104530 76420
L104360 76140
" />
<path d="M104180 76420
L104250 75820
L104480 75820
L104540 75850
L104570 75880
L104590 75940
L104580 76020
L104540 76080
L104510 76110
L104440 76140
L104210 76140
" />
<path d="M105010 76390
L104950 76420
L104840 76420
L104780 76390
L104760 76340
L104790 76110
L104820 76050
L104890 76020
L105000 76020
L105050 76050
L105080 76110
L105070 76170
L104770 76220
" />
<path d="M105290 76020
L105380 76420
L105570 76020
" />
<path d="M105750 76370
L105780 76390
L105750 76420
L105720 76390
L105750 76370
L105750 76420
" />
<path d="M105790 76050
L105820 76080
L105790 76110
L105760 76080
L105790 76050
L105790 76110
" />
<path d="M70940 76390
L71030 76420
L71170 76420
L71230 76390
L71260 76370
L71290 76310
L71290 76250
L71260 76190
L71230 76170
L71170 76140
L71060 76110
L71000 76080
L70970 76050
L70940 75990
L70940 75940
L70970 75880
L71000 75850
L71060 75820
L71200 75820
L71290 75850
" />
<path d="M71540 76420
L71540 76020
" />
<path d="M71540 75820
L71510 75850
L71540 75880
L71570 75850
L71540 75820
L71540 75880
" />
<path d="M71780 76020
L72090 76020
L71780 76420
L72090 76420
" />
<path d="M72550 76390
L72490 76420
L72380 76420
L72320 76390
L72290 76340
L72290 76110
L72320 76050
L72380 76020
L72490 76020
L72550 76050
L72580 76110
L72580 76170
L72290 76220
" />
<path d="M72830 76370
L72860 76390
L72830 76420
L72800 76390
L72830 76370
L72830 76420
" />
<path d="M72830 76050
L72860 76080
L72830 76110
L72800 76080
L72830 76050
L72830 76110
" />
<path d="M73550 76250
L73840 76250
" />
<path d="M73500 76420
L73700 75820
L73900 76420
" />
<path d="M74350 76020
L74350 76420
" />
<path d="M74210 75790
L74060 76220
L74440 76220
" />
<path d="M104170 77620
L104170 77020
" />
<path d="M104720 77620
L104720 77020
" />
<path d="M104720 77590
L104660 77620
L104550 77620
L104490 77590
L104460 77570
L104430 77510
L104430 77340
L104460 77280
L104490 77250
L104550 77220
L104660 77220
L104720 77250
" />
<path d="M105000 77570
L105030 77590
L105000 77620
L104970 77590
L105000 77570
L105000 77620
" />
<path d="M105000 77250
L105030 77280
L105000 77310
L104970 77280
L105000 77250
L105000 77310
" />
<path d="M106070 77620
L105720 77620
" />
<path d="M105900 77620
L105900 77020
L105840 77110
L105780 77170
L105720 77190
" />
<path d="M106750 76990
L106240 77770
" />
<path d="M107270 77620
L106920 77620
" />
<path d="M107100 77620
L107100 77020
L107040 77110
L106980 77170
L106920 77190
" />
<path d="M70970 74620
L71310 74620
" />
<path d="M71070 75220
L71140 74620
" />
<path d="M71440 75220
L71490 74820
" />
<path d="M71510 74620
L71480 74650
L71510 74680
L71540 74650
L71510 74620
L71510 74680
" />
<path d="M71700 74820
L71930 74820
" />
<path d="M71800 74620
L71740 75140
L71760 75190
L71820 75220
L71880 75220
" />
<path d="M72160 75220
L72100 75190
L72080 75140
L72140 74620
" />
<path d="M72610 75190
L72550 75220
L72440 75220
L72380 75190
L72360 75140
L72390 74910
L72420 74850
L72490 74820
L72600 74820
L72650 74850
L72680 74910
L72670 74970
L72370 75020
" />
<path d="M72890 75170
L72920 75190
L72890 75220
L72860 75190
L72890 75170
L72890 75220
" />
<path d="M72930 74850
L72960 74880
L72930 74910
L72900 74880
L72930 74850
L72930 74910
" />
<path d="M73690 74820
L73640 75220
" />
<path d="M73680 74880
L73710 74850
L73780 74820
L73860 74820
L73910 74850
L73940 74910
L73900 75220
" />
<path d="M74270 75220
L74210 75190
L74180 75170
L74160 75110
L74180 74940
L74220 74880
L74250 74850
L74320 74820
L74400 74820
L74450 74850
L74480 74880
L74500 74940
L74480 75110
L74440 75170
L74410 75190
L74350 75220
L74270 75220
" />
<path d="M74770 74820
L74720 75220
" />
<path d="M74760 74880
L74790 74850
L74860 74820
L74940 74820
L74990 74850
L75020 74910
L74980 75220
" />
<path d="M75520 75220
L75560 74910
L75530 74850
L75480 74820
L75370 74820
L75300 74850
" />
<path d="M75520 75190
L75460 75220
L75320 75220
L75260 75190
L75240 75140
L75250 75080
L75280 75020
L75350 74990
L75490 74990
L75550 74970
" />
<path d="M75800 75220
L75850 74820
" />
<path d="M75840 74880
L75870 74850
L75940 74820
L76020 74820
L76070 74850
L76100 74910
L76060 75220
" />
<path d="M76100 74910
L76130 74850
L76200 74820
L76280 74820
L76330 74850
L76360 74910
L76320 75220
" />
<path d="M76830 75190
L76770 75220
L76660 75220
L76600 75190
L76580 75140
L76610 74910
L76640 74850
L76710 74820
L76820 74820
L76870 74850
L76900 74910
L76890 74970
L76590 75020
" />
<path d="M77110 75170
L77140 75190
L77110 75220
L77080 75190
L77110 75170
L77110 75220
" />
<path d="M77370 75190
L77430 75220
L77550 75220
L77600 75190
L77640 75140
L77640 75110
L77620 75050
L77570 75020
L77480 75020
L77430 74990
L77400 74940
L77410 74910
L77440 74850
L77510 74820
L77600 74820
L77640 74850
" />
<path d="M78150 75190
L78090 75220
L77980 75220
L77920 75190
L77890 75170
L77870 75110
L77890 74940
L77930 74880
L77960 74850
L78030 74820
L78140 74820
L78190 74850
" />
<path d="M78400 75220
L78470 74620
" />
<path d="M78660 75220
L78700 74910
L78670 74850
L78620 74820
L78540 74820
L78470 74850
L78440 74880
" />
<path d="M71170 72510
L70970 72510
" />
<path d="M70970 72820
L70970 72220
L71260 72220
" />
<path d="M71480 72820
L71480 72420
" />
<path d="M71480 72220
L71450 72250
L71480 72280
L71510 72250
L71480 72220
L71480 72280
" />
<path d="M71860 72820
L71800 72790
L71770 72740
L71770 72220
" />
<path d="M72310 72790
L72250 72820
L72140 72820
L72080 72790
L72050 72740
L72050 72510
L72080 72450
L72140 72420
L72250 72420
L72310 72450
L72340 72510
L72340 72570
L72050 72620
" />
<path d="M72590 72770
L72620 72790
L72590 72820
L72560 72790
L72590 72770
L72590 72820
" />
<path d="M72590 72450
L72620 72480
L72590 72510
L72560 72480
L72590 72450
L72590 72510
" />
<path d="M73600 72820
L73600 72220
" />
<path d="M73600 72790
L73540 72820
L73430 72820
L73370 72790
L73340 72770
L73310 72710
L73310 72540
L73340 72480
L73370 72450
L73430 72420
L73540 72420
L73600 72450
" />
<path d="M74140 72790
L74080 72820
L73970 72820
L73910 72790
L73880 72770
L73850 72710
L73850 72540
L73880 72480
L73910 72450
L73970 72420
L74080 72420
L74140 72450
" />
<path d="M74390 72590
L74850 72590
" />
<path d="M75390 72820
L75390 72510
L75360 72450
L75300 72420
L75190 72420
L75130 72450
" />
<path d="M75390 72790
L75330 72820
L75190 72820
L75130 72790
L75100 72740
L75100 72680
L75130 72620
L75190 72590
L75330 72590
L75390 72570
" />
<path d="M75670 72820
L75670 72420
" />
<path d="M75670 72480
L75700 72450
L75760 72420
L75840 72420
L75900 72450
L75930 72510
L75930 72820
" />
<path d="M75930 72510
L75960 72450
L76020 72420
L76100 72420
L76160 72450
L76190 72510
L76190 72820
" />
<path d="M76470 72420
L76470 73020
" />
<path d="M76470 72450
L76530 72420
L76640 72420
L76700 72450
L76730 72480
L76760 72540
L76760 72710
L76730 72770
L76700 72790
L76640 72820
L76530 72820
L76470 72790
" />
<path d="M77100 72820
L77040 72790
L77010 72740
L77010 72220
" />
<path d="M77320 72820
L77320 72420
" />
<path d="M77320 72220
L77290 72250
L77320 72280
L77350 72250
L77320 72220
L77320 72280
" />
<path d="M77530 72420
L77760 72420
" />
<path d="M77610 72820
L77610 72310
L77640 72250
L77700 72220
L77760 72220
" />
<path d="M77950 72820
L77950 72420
" />
<path d="M77950 72220
L77920 72250
L77950 72280
L77980 72250
L77950 72220
L77950 72280
" />
<path d="M78500 72790
L78440 72820
L78330 72820
L78270 72790
L78240 72770
L78210 72710
L78210 72540
L78240 72480
L78270 72450
L78330 72420
L78440 72420
L78500 72450
" />
<path d="M79010 72820
L79010 72510
L78980 72450
L78920 72420
L78810 72420
L78750 72450
" />
<path d="M79010 72790
L78950 72820
L78810 72820
L78750 72790
L78720 72740
L78720 72680
L78750 72620
L78810 72590
L78950 72590
L79010 72570
" />
<path d="M79210 72420
L79440 72420
" />
<path d="M79290 72220
L79290 72740
L79320 72790
L79380 72820
L79440 72820
" />
<path d="M79630 72820
L79630 72420
" />
<path d="M79630 72220
L79600 72250
L79630 72280
L79660 72250
L79630 72220
L79630 72280
" />
<path d="M80010 72820
L79950 72790
L79920 72770
L79890 72710
L79890 72540
L79920 72480
L79950 72450
L80010 72420
L80090 72420
L80150 72450
L80180 72480
L80210 72540
L80210 72710
L80180 72770
L80150 72790
L80090 72820
L80010 72820
" />
<path d="M80460 72420
L80460 72820
" />
<path d="M80460 72480
L80490 72450
L80550 72420
L80630 72420
L80690 72450
L80720 72510
L80720 72820
" />
<path d="M81000 72770
L81030 72790
L81000 72820
L80970 72790
L81000 72770
L81000 72820
" />
<path d="M81260 72790
L81320 72820
L81440 72820
L81490 72790
L81520 72740
L81520 72710
L81490 72650
L81440 72620
L81350 72620
L81290 72590
L81260 72540
L81260 72510
L81290 72450
L81350 72420
L81440 72420
L81490 72450
" />
<path d="M82040 72790
L81980 72820
L81870 72820
L81810 72790
L81780 72770
L81750 72710
L81750 72540
L81780 72480
L81810 72450
L81870 72420
L81980 72420
L82040 72450
" />
<path d="M82290 72820
L82290 72220
" />
<path d="M82550 72820
L82550 72510
L82520 72450
L82460 72420
L82380 72420
L82320 72450
L82290 72480
" />
<path d="M70940 73990
L71030 74020
L71170 74020
L71230 73990
L71260 73970
L71290 73910
L71290 73850
L71260 73790
L71230 73770
L71170 73740
L71060 73710
L71000 73680
L70970 73650
L70940 73590
L70940 73540
L70970 73480
L71000 73450
L71060 73420
L71200 73420
L71290 73450
" />
<path d="M71540 74020
L71540 73420
" />
<path d="M71800 74020
L71800 73710
L71770 73650
L71710 73620
L71630 73620
L71570 73650
L71540 73680
" />
<path d="M72310 73990
L72250 74020
L72140 74020
L72080 73990
L72050 73940
L72050 73710
L72080 73650
L72140 73620
L72250 73620
L72310 73650
L72340 73710
L72340 73770
L72050 73820
" />
<path d="M72820 73990
L72760 74020
L72650 74020
L72590 73990
L72560 73940
L72560 73710
L72590 73650
L72650 73620
L72760 73620
L72820 73650
L72850 73710
L72850 73770
L72560 73820
" />
<path d="M73020 73620
L73250 73620
" />
<path d="M73100 73420
L73100 73940
L73130 73990
L73190 74020
L73250 74020
" />
<path d="M73440 73970
L73470 73990
L73440 74020
L73410 73990
L73440 73970
L73440 74020
" />
<path d="M73440 73650
L73470 73680
L73440 73710
L73410 73680
L73440 73650
L73440 73710
" />
<path d="M74620 73390
L74110 74170
" />
<path d="M70230 71980
L70230 77980
" />
<path d="M70230 71980
L112230 71980
" />
<path d="M70230 71980
L112230 71980
" />
<path d="M70230 74380
L112230 74380
" />
<path d="M103430 75580
L103430 77980
" />
<path d="M70230 76780
L112230 76780
" />
<path d="M70230 75580
L112230 75580
" />
<path d="M76830 75580
L76830 76780
" />
</g>
<g style="fill:#A00000; fill-opacity:0.0; 
stroke:#A00000; stroke-width:0; stroke-opacity:1; 
stroke-linecap:round; stroke-linejoin:round;">
</g>
<g style="fill:#A00000; fill-opacity:0.0; 
stroke:#A00000; stroke-width:100; stroke-opacity:1; 
stroke-linecap:round; stroke-linejoin:round;">
<circle cx="36500" cy="22000" r="1110" /> 
</g>
<g style="fill:#A00000; fill-opacity:0.0; 
stroke:#A00000; stroke-width:60; stroke-opacity:1; 
stroke-linecap:round; stroke-linejoin:round;">
<polyline fill="none;"
points="36000,22000
37000,21000
" /> 
</g>
<g style="fill:#A00000; fill-opacity:0.0; 
stroke:#A00000; stroke-width:100; stroke-opacity:1; 
stroke-linecap:round; stroke-linejoin:round;">
<polyline fill="none;"
points="36000,21250
36000,22750
36000,22750
" /> 
</g>
<g style="fill:#A00000; fill-opacity:0.0; 
stroke:#A00000; stroke-width:60; stroke-opacity:1; 
stroke-linecap:round; stroke-linejoin:round;">
<polyline fill="none;"
points="36500,22500
36000,22000
36000,22000
" /> 
<polyline fill="none;"
points="36900,22900
37000,23000
37000,23000
" /> 
</g>
<g style="fill:#A00000; fill-opacity:1.0; 
stroke:#A00000; stroke-width:60; stroke-opacity:1; 
stroke-linecap:round; stroke-linejoin:round;">
<polyline style="fill-rule:evenodd;"
points="36900,22900
36700,22300
36300,22700
36900,22900
36900,22900
" /> 
<path d="M37000 23000
L37000 24000
" />
</g>
<g style="fill:#00A0A0; fill-opacity:0.0; 
stroke:#00A0A0; stroke-width:60; stroke-opacity:1; 
stroke-linecap:round; stroke-linejoin:round;">
<path d="M36650 23580
L36650 23450
" />
<path d="M36860 23390
L36860 23580
L36460 23580
L36460 23390
" />
</g>
<g style="fill:#A00000; fill-opacity:0.0; 
stroke:#A00000; stroke-width:60; stroke-opacity:1; 
stroke-linecap:round; stroke-linejoin:round;">
<path d="M37460 23390
L37460 23610
" />
<path d="M37460 23500
L37060 23500
L37120 23540
L37160 23580
L37180 23610
" />
<path d="M36000 22000
L34000 22000
" />
</g>
<g style="fill:#00A0A0; fill-opacity:0.0; 
stroke:#00A0A0; stroke-width:60; stroke-opacity:1; 
stroke-linecap:round; stroke-linejoin:round;">
<path d="M35030 21650
L35090 21670
L35100 21690
L35120 21730
L35120 21790
L35100 21820
L35090 21840
L35050 21860
L34900 21860
L34900 21460
L35030 21460
L35070 21480
L35090 21500
L35100 21540
L35100 21580
L35090 21610
L35070 21630
L35030 21650
L34900 21650
" />
</g>
<g style="fill:#A00000; fill-opacity:0.0; 
stroke:#A00000; stroke-width:60; stroke-opacity:1; 
stroke-linecap:round; stroke-linejoin:round;">
<path d="M34890 22100
L34910 22080
L34940 22060
L35040 22060
L35080 22080
L35100 22100
L35110 22140
L35110 22180
L35100 22230
L34870 22460
L35110 22460
" />
<path d="M37000 21000
L37000 20000
" />
</g>
<g style="fill:#00A0A0; fill-opacity:0.0; 
stroke:#00A0A0; stroke-width:60; stroke-opacity:1; 
stroke-linecap:round; stroke-linejoin:round;">
<path d="M36820 20380
L36840 20400
L36860 20450
L36860 20490
L36840 20550
L36800 20590
L36770 20600
L36690 20620
L36630 20620
L36560 20600
L36520 20590
L36480 20550
L36460 20490
L36460 20450
L36480 20400
L36500 20380
" />
</g>
<g style="fill:#A00000; fill-opacity:0.0; 
stroke:#A00000; stroke-width:60; stroke-opacity:1; 
stroke-linecap:round; stroke-linejoin:round;">
<path d="M37060 20630
L37060 20390
L37210 20520
L37210 20460
L37230 20420
L37250 20400
L37290 20390
L37390 20390
L37420 20400
L37440 20420
L37460 20460
L37460 20580
L37440 20610
L37420 20630
" />
</g>
<g style="fill:#00A0A0; fill-opacity:0.0; 
stroke:#00A0A0; stroke-width:60; stroke-opacity:1; 
stroke-linecap:round; stroke-linejoin:round;">
<path d="M35500 23720
L35450 23700
L35410 23650
L35340 23580
L35290 23550
L35240 23550
" />
<path d="M35260 23670
L35220 23650
L35170 23600
L35150 23510
L35150 23340
L35170 23240
L35220 23200
L35260 23170
L35360 23170
L35410 23200
L35450 23240
L35480 23340
L35480 23510
L35450 23600
L35410 23650
L35360 23670
L35260 23670
" />
<path d="M35760 23620
L35780 23650
L35760 23670
L35740 23650
L35760 23620
L35760 23670
" />
<path d="M35670 23200
L35710 23170
L35830 23170
L35880 23200
L35900 23240
L35900 23290
L35880 23340
L35860 23360
L35810 23390
L35780 23410
L35760 23460
L35760 23480
" />
<path d="M34580 20670
L34580 20170
L34860 20670
L34860 20170
" />
<path d="M35100 20670
L35100 20170
L35290 20170
L35340 20200
L35360 20220
L35380 20270
L35380 20340
L35360 20390
L35340 20410
L35290 20430
L35100 20430
" />
<path d="M35600 20670
L35600 20170
L35880 20670
L35880 20170
" />
</g>
<g style="fill:#00A0A0; fill-opacity:0.0; 
stroke:#00A0A0; stroke-width:0; stroke-opacity:1; 
stroke-linecap:round; stroke-linejoin:round;">
</g>
<g style="fill:#A00000; fill-opacity:0.0; 
stroke:#A00000; stroke-width:60; stroke-opacity:1; 
stroke-linecap:round; stroke-linejoin:round;">
<circle cx="25500" cy="25000" r="1500" /> 
<polyline fill="none;"
points="25500,24000
25500,23500
" /> 
<polyline fill="none;"
points="24600,24000
26390,24000
" /> 
<polyline fill="none;"
points="25000,24690
26000,24690
" /> 
<polyline fill="none;"
points="24600,25390
26390,25390
" /> 
<polyline fill="none;"
points="25500,26000
25500,26500
" /> 
<polyline fill="none;"
points="25000,26000
26000,26000
" /> 
<path d="M25500 23500
L25500 22000
" />
</g>
<g style="fill:#00A0A0; fill-opacity:0.0; 
stroke:#00A0A0; stroke-width:60; stroke-opacity:1; 
stroke-linecap:round; stroke-linejoin:round;">
<path d="M25160 22940
L25160 22560
" />
<path d="M25350 22750
L24970 22750
" />
</g>
<g style="fill:#A00000; fill-opacity:0.0; 
stroke:#A00000; stroke-width:60; stroke-opacity:1; 
stroke-linecap:round; stroke-linejoin:round;">
<path d="M26050 22610
L26050 22890
" />
<path d="M26050 22750
L25550 22750
L25620 22800
L25670 22850
L25700 22890
" />
<path d="M25500 26500
L25500 28000
" />
</g>
<g style="fill:#00A0A0; fill-opacity:0.0; 
stroke:#00A0A0; stroke-width:60; stroke-opacity:1; 
stroke-linecap:round; stroke-linejoin:round;">
<path d="M25160 27440
L25160 27060
" />
</g>
<g style="fill:#A00000; fill-opacity:0.0; 
stroke:#A00000; stroke-width:60; stroke-opacity:1; 
stroke-linecap:round; stroke-linejoin:round;">
<path d="M25600 27390
L25580 27370
L25550 27320
L25550 27200
L25580 27160
L25600 27130
L25650 27110
L25700 27110
L25770 27130
L26050 27420
L26050 27110
" />
</g>
<g style="fill:#00A0A0; fill-opacity:0.0; 
stroke:#00A0A0; stroke-width:60; stroke-opacity:1; 
stroke-linecap:round; stroke-linejoin:round;">
<path d="M23410 25360
L23430 25290
L23460 25270
L23510 25250
L23580 25250
L23620 25270
L23650 25290
L23670 25340
L23670 25530
L23170 25530
L23170 25360
L23200 25320
L23220 25290
L23270 25270
L23320 25270
L23360 25290
L23390 25320
L23410 25360
L23410 25530
" />
<path d="M23170 25100
L23170 24820
" />
<path d="M23670 24960
L23170 24960
" />
<path d="M23620 24580
L23650 24560
L23670 24580
L23650 24600
L23620 24580
L23670 24580
" />
<path d="M23200 24670
L23170 24630
L23170 24510
L23200 24460
L23240 24440
L23290 24440
L23340 24460
L23360 24480
L23390 24530
L23410 24560
L23460 24580
L23480 24580
" />
<path d="M27310 26240
L27330 26170
L27360 26150
L27410 26130
L27480 26130
L27520 26150
L27550 26170
L27570 26220
L27570 26410
L27070 26410
L27070 26240
L27100 26200
L27120 26170
L27170 26150
L27220 26150
L27260 26170
L27290 26200
L27310 26240
L27310 26410
" />
<path d="M27430 25930
L27430 25700
" />
<path d="M27570 25980
L27070 25820
L27570 25650
" />
<path d="M27070 25550
L27070 25270
" />
<path d="M27570 25410
L27070 25410
" />
<path d="M27070 25170
L27070 24890
" />
<path d="M27570 25030
L27070 25030
" />
<path d="M27310 24720
L27310 24550
" />
<path d="M27570 24480
L27570 24720
L27070 24720
L27070 24480
" />
<path d="M27570 23990
L27330 24150
" />
<path d="M27570 24270
L27070 24270
L27070 24080
L27100 24030
L27120 24010
L27170 23990
L27240 23990
L27290 24010
L27310 24030
L27330 24080
L27330 24270
" />
<path d="M27330 23680
L27570 23680
" />
<path d="M27070 23840
L27330 23680
L27070 23510
" />
</g>
<g style="fill:#00A000; fill-opacity:0.0; 
stroke:#00A000; stroke-width:60; stroke-opacity:1; 
stroke-linecap:round; stroke-linejoin:round;">
<path d="M25500 22000
L34000 22000
" />
<path d="M37000 20000
L37000 17500
" />
</g>
<g style="fill:#00A000; fill-opacity:0.0; 
stroke:#00A000; stroke-width:0; stroke-opacity:1; 
stroke-linecap:round; stroke-linejoin:round;">
</g>
<g style="fill:#A00000; fill-opacity:0.0; 
stroke:#A00000; stroke-width:120; stroke-opacity:1; 
stroke-linecap:round; stroke-linejoin:round;">
<rect x="38000" y="17100" width="3000" height="800" rx="0" />
</g>
<g style="fill:#A00000; fill-opacity:0.0; 
stroke:#A00000; stroke-width:60; stroke-opacity:1; 
stroke-linecap:round; stroke-linejoin:round;">
<path d="M41000 17500
L42000 17500
" />
</g>
<g style="fill:#00A0A0; fill-opacity:0.0; 
stroke:#00A0A0; stroke-width:60; stroke-opacity:1; 
stroke-linecap:round; stroke-linejoin:round;">
</g>
<g style="fill:#A00000; fill-opacity:0.0; 
stroke:#A00000; stroke-width:60; stroke-opacity:1; 
stroke-linecap:round; stroke-linejoin:round;">
<path d="M38000 17500
L37000 17500
" />
</g>
<g style="fill:#00A0A0; fill-opacity:0.0; 
stroke:#00A0A0; stroke-width:60; stroke-opacity:1; 
stroke-linecap:round; stroke-linejoin:round;">
<path d="M39450 18430
L39320 18240
" />
<path d="M39230 18430
L39230 18030
L39380 18030
L39420 18050
L39430 18070
L39450 18110
L39450 18170
L39430 18200
L39420 18220
L39380 18240
L39230 18240
" />
<path d="M39680 18390
L39700 18410
L39680 18430
L39660 18410
L39680 18390
L39680 18430
" />
<path d="M39610 18050
L39640 18030
L39740 18030
L39780 18050
L39800 18090
L39800 18130
L39780 18170
L39760 18180
L39720 18200
L39700 18220
L39680 18260
L39680 18280
" />
<path d="M39230 17700
L39010 17700
" />
<path d="M39120 17700
L39120 17300
L39080 17360
L39040 17400
L39010 17420
" />
<path d="M39480 17300
L39520 17300
L39560 17320
L39580 17340
L39600 17380
L39610 17450
L39610 17550
L39600 17630
L39580 17660
L39560 17680
L39520 17700
L39480 17700
L39440 17680
L39420 17660
L39410 17630
L39390 17550
L39390 17450
L39410 17380
L39420 17340
L39440 17320
L39480 17300
" />
<path d="M39790 17700
L39790 17300
" />
<path d="M40010 17700
L39840 17470
" />
<path d="M40010 17300
L39790 17530
" />
</g>
<g style="fill:#00A0A0; fill-opacity:0.0; 
stroke:#00A0A0; stroke-width:0; stroke-opacity:1; 
stroke-linecap:round; stroke-linejoin:round;">
</g>
<g style="fill:#A00000; fill-opacity:0.0; 
stroke:#A00000; stroke-width:120; stroke-opacity:1; 
stroke-linecap:round; stroke-linejoin:round;">
<rect x="36600" y="13500" width="800" height="3000" rx="0" />
</g>
<g style="fill:#A00000; fill-opacity:0.0; 
stroke:#A00000; stroke-width:60; stroke-opacity:1; 
stroke-linecap:round; stroke-linejoin:round;">
<path d="M37000 13500
L37000 12500
" />
</g>
<g style="fill:#00A0A0; fill-opacity:0.0; 
stroke:#00A0A0; stroke-width:60; stroke-opacity:1; 
stroke-linecap:round; stroke-linejoin:round;">
</g>
<g style="fill:#A00000; fill-opacity:0.0; 
stroke:#A00000; stroke-width:60; stroke-opacity:1; 
stroke-linecap:round; stroke-linejoin:round;">
<path d="M37000 16500
L37000 17500
" />
</g>
<g style="fill:#00A0A0; fill-opacity:0.0; 
stroke:#00A0A0; stroke-width:60; stroke-opacity:1; 
stroke-linecap:round; stroke-linejoin:round;">
<path d="M37930 15050
L37740 15180
" />
<path d="M37930 15270
L37530 15270
L37530 15120
L37550 15080
L37570 15070
L37610 15050
L37670 15050
L37700 15070
L37720 15080
L37740 15120
L37740 15270
" />
<path d="M37890 14820
L37910 14800
L37930 14820
L37910 14840
L37890 14820
L37930 14820
" />
<path d="M37550 14890
L37530 14860
L37530 14760
L37550 14720
L37590 14700
L37630 14700
L37670 14720
L37680 14740
L37700 14780
L37720 14800
L37760 14820
L37780 14820
" />
<path d="M37200 15270
L37200 15490
" />
<path d="M37200 15380
L36800 15380
L36860 15420
L36900 15460
L36920 15490
" />
<path d="M36800 15020
L36800 14980
L36820 14940
L36840 14920
L36880 14900
L36950 14890
L37050 14890
L37130 14900
L37160 14920
L37180 14940
L37200 14980
L37200 15020
L37180 15060
L37160 15080
L37130 15090
L37050 15110
L36950 15110
L36880 15090
L36840 15080
L36820 15060
L36800 15020
" />
<path d="M37200 14710
L36800 14710
" />
<path d="M37200 14490
L36970 14660
" />
<path d="M36800 14490
L37030 14710
" />
</g>
<g style="fill:#00A0A0; fill-opacity:0.0; 
stroke:#00A0A0; stroke-width:0; stroke-opacity:1; 
stroke-linecap:round; stroke-linejoin:round;">
</g>
<g style="fill:#A00000; fill-opacity:0.0; 
stroke:#A00000; stroke-width:120; stroke-opacity:1; 
stroke-linecap:round; stroke-linejoin:round;">
<rect x="30600" y="25000" width="800" height="3000" rx="0" />
</g>
<g style="fill:#A00000; fill-opacity:0.0; 
stroke:#A00000; stroke-width:60; stroke-opacity:1; 
stroke-linecap:round; stroke-linejoin:round;">
<path d="M31000 25000
L31000 24000
" />
</g>
<g style="fill:#00A0A0; fill-opacity:0.0; 
stroke:#00A0A0; stroke-width:60; stroke-opacity:1; 
stroke-linecap:round; stroke-linejoin:round;">
</g>
<g style="fill:#A00000; fill-opacity:0.0; 
stroke:#A00000; stroke-width:60; stroke-opacity:1; 
stroke-linecap:round; stroke-linejoin:round;">
<path d="M31000 28000
L31000 29000
" />
</g>
<g style="fill:#00A0A0; fill-opacity:0.0; 
stroke:#00A0A0; stroke-width:60; stroke-opacity:1; 
stroke-linecap:round; stroke-linejoin:round;">
<path d="M31930 26550
L31740 26680
" />
<path d="M31930 26770
L31530 26770
L31530 26620
L31550 26580
L31570 26570
L31610 26550
L31670 26550
L31700 26570
L31720 26580
L31740 26620
L31740 26770
" />
<path d="M31890 26320
L31910 26300
L31930 26320
L31910 26340
L31890 26320
L31930 26320
" />
<path d="M31550 26390
L31530 26360
L31530 26260
L31550 26220
L31590 26200
L31630 26200
L31670 26220
L31680 26240
L31700 26280
L31720 26300
L31760 26320
L31780 26320
" />
<path d="M31200 26770
L31200 26990
" />
<path d="M31200 26880
L30800 26880
L30860 26920
L30900 26960
L30920 26990
" />
<path d="M30800 26520
L30800 26480
L30820 26440
L30840 26420
L30880 26400
L30950 26390
L31050 26390
L31130 26400
L31160 26420
L31180 26440
L31200 26480
L31200 26520
L31180 26560
L31160 26580
L31130 26590
L31050 26610
L30950 26610
L30880 26590
L30840 26580
L30820 26560
L30800 26520
" />
<path d="M31200 26210
L30800 26210
" />
<path d="M31200 25990
L30970 26160
" />
<path d="M30800 25990
L31030 26210
" />
</g>
<g style="fill:#00A000; fill-opacity:0.0; 
stroke:#00A000; stroke-width:60; stroke-opacity:1; 
stroke-linecap:round; stroke-linejoin:round;">
<path d="M31000 22000
L31000 24000
" />
</g>
<g style="fill:#00A000; fill-opacity:0.0; 
stroke:#00A000; stroke-width:0; stroke-opacity:1; 
stroke-linecap:round; stroke-linejoin:round;">
</g>
<g style="fill:#00A000; fill-opacity:1.0; 
stroke:#00A000; stroke-width:100; stroke-opacity:1; 
stroke-linecap:round; stroke-linejoin:round;">
<circle cx="31000" cy="22000" r="160" /> 
</g>
<g style="fill:#00A000; fill-opacity:1.0; 
stroke:#00A000; stroke-width:60; stroke-opacity:1; 
stroke-linecap:round; stroke-linejoin:round;">
<path d="M25500 29000
L52000 29000
" />
</g>
<g style="fill:#00A000; fill-opacity:1.0; 
stroke:#00A000; stroke-width:0; stroke-opacity:1; 
stroke-linecap:round; stroke-linejoin:round;">
</g>
<g style="fill:#00A000; fill-opacity:1.0; 
stroke:#00A000; stroke-width:100; stroke-opacity:1; 
stroke-linecap:round; stroke-linejoin:round;">
<circle cx="37000" cy="29000" r="160" /> 
</g>
<g style="fill:#00A000; fill-opacity:1.0; 
stroke:#00A000; stroke-width:60; stroke-opacity:1; 
stroke-linecap:round; stroke-linejoin:round;">
<path d="M37000 29000
L37000 24000
" />
<path d="M25500 28000
L25500 29000
" />
</g>
<g style="fill:#00A000; fill-opacity:1.0; 
stroke:#00A000; stroke-width:0; stroke-opacity:1; 
stroke-linecap:round; stroke-linejoin:round;">
</g>
<g style="fill:#00A000; fill-opacity:1.0; 
stroke:#00A000; stroke-width:100; stroke-opacity:1; 
stroke-linecap:round; stroke-linejoin:round;">
<circle cx="31000" cy="29000" r="160" /> 
</g>
<g style="fill:#00A000; fill-opacity:1.0; 
stroke:#00A000; stroke-width:0; stroke-opacity:1; 
stroke-linecap:round; stroke-linejoin:round;">
</g>
<g style="fill:#A00000; fill-opacity:0.0; 
stroke:#A00000; stroke-width:100; stroke-opacity:1; 
stroke-linecap:round; stroke-linejoin:round;">
<circle cx="44500" cy="17500" r="1110" /> 
</g>
<g style="fill:#A00000; fill-opacity:0.0; 
stroke:#A00000; stroke-width:60; stroke-opacity:1; 
stroke-linecap:round; stroke-linejoin:round;">
<polyline fill="none;"
points="44000,17500
45000,16500
" /> 
</g>
<g style="fill:#A00000; fill-opacity:1.0; 
stroke:#A00000; stroke-width:100; stroke-opacity:1; 
stroke-linecap:round; stroke-linejoin:round;">
<polyline style="fill-rule:evenodd;"
points="44000,16750
44000,18250
44000,18250
" /> 
</g>
<g style="fill:#A00000; fill-opacity:0.0; 
stroke:#A00000; stroke-width:60; stroke-opacity:1; 
stroke-linecap:round; stroke-linejoin:round;">
<polyline fill="none;"
points="44250,17750
44000,17500
44000,17500
" /> 
<polyline fill="none;"
points="45000,18500
44650,18150
44650,18150
" /> 
</g>
<g style="fill:#A00000; fill-opacity:1.0; 
stroke:#A00000; stroke-width:60; stroke-opacity:1; 
stroke-linecap:round; stroke-linejoin:round;">
<polyline style="fill-rule:evenodd;"
points="44250,17750
44500,18250
44750,18000
44250,17750
44250,17750
" /> 
<path d="M45000 18500
L45000 19500
" />
</g>
<g style="fill:#00A0A0; fill-opacity:0.0; 
stroke:#00A0A0; stroke-width:60; stroke-opacity:1; 
stroke-linecap:round; stroke-linejoin:round;">
<path d="M44650 19080
L44650 18950
" />
<path d="M44860 18890
L44860 19080
L44460 19080
L44460 18890
" />
</g>
<g style="fill:#A00000; fill-opacity:0.0; 
stroke:#A00000; stroke-width:60; stroke-opacity:1; 
stroke-linecap:round; stroke-linejoin:round;">
<path d="M45460 18890
L45460 19110
" />
<path d="M45460 19000
L45060 19000
L45120 19040
L45160 19080
L45180 19110
" />
<path d="M44000 17500
L42000 17500
" />
</g>
<g style="fill:#00A0A0; fill-opacity:0.0; 
stroke:#00A0A0; stroke-width:60; stroke-opacity:1; 
stroke-linecap:round; stroke-linejoin:round;">
<path d="M43030 17150
L43090 17170
L43100 17190
L43120 17230
L43120 17290
L43100 17320
L43090 17340
L43050 17360
L42900 17360
L42900 16960
L43030 16960
L43070 16980
L43090 17000
L43100 17040
L43100 17080
L43090 17110
L43070 17130
L43030 17150
L42900 17150
" />
</g>
<g style="fill:#A00000; fill-opacity:0.0; 
stroke:#A00000; stroke-width:60; stroke-opacity:1; 
stroke-linecap:round; stroke-linejoin:round;">
<path d="M42890 17600
L42910 17580
L42940 17560
L43040 17560
L43080 17580
L43100 17600
L43110 17640
L43110 17680
L43100 17730
L42870 17960
L43110 17960
" />
<path d="M45000 16500
L45000 15500
" />
</g>
<g style="fill:#00A0A0; fill-opacity:0.0; 
stroke:#00A0A0; stroke-width:60; stroke-opacity:1; 
stroke-linecap:round; stroke-linejoin:round;">
<path d="M44820 15880
L44840 15900
L44860 15950
L44860 15990
L44840 16050
L44800 16090
L44770 16100
L44690 16120
L44630 16120
L44560 16100
L44520 16090
L44480 16050
L44460 15990
L44460 15950
L44480 15900
L44500 15880
" />
</g>
<g style="fill:#A00000; fill-opacity:0.0; 
stroke:#A00000; stroke-width:60; stroke-opacity:1; 
stroke-linecap:round; stroke-linejoin:round;">
<path d="M45060 16130
L45060 15890
L45210 16020
L45210 15960
L45230 15920
L45250 15900
L45290 15890
L45390 15890
L45420 15900
L45440 15920
L45460 15960
L45460 16080
L45440 16110
L45420 16130
" />
</g>
<g style="fill:#00A0A0; fill-opacity:0.0; 
stroke:#00A0A0; stroke-width:60; stroke-opacity:1; 
stroke-linecap:round; stroke-linejoin:round;">
<path d="M43400 19270
L43350 19240
L43290 19180
L43200 19100
L43150 19070
L43090 19070
" />
<path d="M43120 19210
L43060 19180
L43000 19130
L42970 19010
L42970 18810
L43000 18700
L43060 18640
L43120 18610
L43230 18610
L43290 18640
L43350 18700
L43370 18810
L43370 19010
L43350 19130
L43290 19180
L43230 19210
L43120 19210
" />
<path d="M43720 19160
L43750 19180
L43720 19210
L43690 19180
L43720 19160
L43720 19210
" />
<path d="M43600 18640
L43660 18610
L43800 18610
L43860 18640
L43890 18700
L43890 18760
L43860 18810
L43830 18840
L43780 18870
L43750 18900
L43720 18960
L43720 18980
" />
<path d="M42310 16210
L42310 15610
L42540 15610
L42600 15640
L42630 15670
L42660 15730
L42660 15810
L42630 15870
L42600 15900
L42540 15930
L42310 15930
" />
<path d="M42910 16210
L42910 15610
L43260 16210
L43260 15610
" />
<path d="M43540 16210
L43540 15610
L43770 15610
L43830 15640
L43860 15670
L43890 15730
L43890 15810
L43860 15870
L43830 15900
L43770 15930
L43540 15930
" />
</g>
<g style="fill:#00A000; fill-opacity:0.0; 
stroke:#00A000; stroke-width:60; stroke-opacity:1; 
stroke-linecap:round; stroke-linejoin:round;">
<path d="M37000 12500
L45000 12500
" />
<path d="M45000 12500
L45000 15500
" />
</g>
<g style="fill:#00A000; fill-opacity:0.0; 
stroke:#00A000; stroke-width:0; stroke-opacity:1; 
stroke-linecap:round; stroke-linejoin:round;">
</g>
<g style="fill:#A00000; fill-opacity:0.0; 
stroke:#A00000; stroke-width:120; stroke-opacity:1; 
stroke-linecap:round; stroke-linejoin:round;">
<rect x="44600" y="25000" width="800" height="3000" rx="0" />
</g>
<g style="fill:#A00000; fill-opacity:0.0; 
stroke:#A00000; stroke-width:60; stroke-opacity:1; 
stroke-linecap:round; stroke-linejoin:round;">
<path d="M45000 25000
L45000 24000
" />
</g>
<g style="fill:#00A0A0; fill-opacity:0.0; 
stroke:#00A0A0; stroke-width:60; stroke-opacity:1; 
stroke-linecap:round; stroke-linejoin:round;">
</g>
<g style="fill:#A00000; fill-opacity:0.0; 
stroke:#A00000; stroke-width:60; stroke-opacity:1; 
stroke-linecap:round; stroke-linejoin:round;">
<path d="M45000 28000
L45000 29000
" />
</g>
<g style="fill:#00A0A0; fill-opacity:0.0; 
stroke:#00A0A0; stroke-width:60; stroke-opacity:1; 
stroke-linecap:round; stroke-linejoin:round;">
<path d="M45930 26550
L45740 26680
" />
<path d="M45930 26770
L45530 26770
L45530 26620
L45550 26580
L45570 26570
L45610 26550
L45670 26550
L45700 26570
L45720 26580
L45740 26620
L45740 26770
" />
<path d="M45890 26320
L45910 26300
L45930 26320
L45910 26340
L45890 26320
L45930 26320
" />
<path d="M45550 26390
L45530 26360
L45530 26260
L45550 26220
L45590 26200
L45630 26200
L45670 26220
L45680 26240
L45700 26280
L45720 26300
L45760 26320
L45780 26320
" />
<path d="M45200 26730
L45200 26950
" />
<path d="M45200 26840
L44800 26840
L44860 26880
L44900 26920
L44920 26950
" />
<path d="M44800 26480
L44800 26440
L44820 26400
L44840 26380
L44880 26360
L44950 26350
L45050 26350
L45130 26360
L45160 26380
L45180 26400
L45200 26440
L45200 26480
L45180 26520
L45160 26540
L45130 26550
L45050 26570
L44950 26570
L44880 26550
L44840 26540
L44820 26520
L44800 26480
" />
<path d="M45200 26170
L44800 26170
" />
<path d="M45050 26140
L45200 26020
" />
<path d="M44940 26020
L45090 26170
" />
</g>
<g style="fill:#00A000; fill-opacity:0.0; 
stroke:#00A000; stroke-width:60; stroke-opacity:1; 
stroke-linecap:round; stroke-linejoin:round;">
<path d="M45000 20000
L45000 24000
" />
<path d="M45000 22000
L52000 22000
" />
</g>
<g style="fill:#00A000; fill-opacity:0.0; 
stroke:#00A000; stroke-width:0; stroke-opacity:1; 
stroke-linecap:round; stroke-linejoin:round;">
</g>
<g style="fill:#00A000; fill-opacity:1.0; 
stroke:#00A000; stroke-width:100; stroke-opacity:1; 
stroke-linecap:round; stroke-linejoin:round;">
<circle cx="45000" cy="22000" r="160" /> 
</g>
<g style="fill:#00A000; fill-opacity:1.0; 
stroke:#00A000; stroke-width:0; stroke-opacity:1; 
stroke-linecap:round; stroke-linejoin:round;">
</g>
<g style="fill:#00A000; fill-opacity:1.0; 
stroke:#00A000; stroke-width:100; stroke-opacity:1; 
stroke-linecap:round; stroke-linejoin:round;">
<circle cx="45000" cy="29000" r="160" /> 
</g> 
</svg>
