<?xml version="1.0" standalone="no"?>
 <!DOCTYPE svg PUBLIC "-//W3C//DTD SVG 1.1//EN" 
 "http://www.w3.org/Graphics/SVG/1.1/DTD/svg11.dtd"> 
<svg xmlns="http://www.w3.org/2000/svg" version="1.1" 
    width="29.7002cm" height="21.0007cm" viewBox="0 0 116930 82680 ">
<title>SVG Picture created as solar-charging-circuit.svg date 2014/09/16 21:38:23 </title>
  <desc>Picture generated by Eeschema-SVG </desc>
<g style="fill:#000000; fill-opacity:1;stroke:#000000; stroke-opacity:1;
stroke-linecap:round; stroke-linejoin:round; "
 transform="translate(0 0) scale(1 1)">
</g>
<g style="fill:#A00000; fill-opacity:0.0; 
stroke:#A00000; stroke-width:100; stroke-opacity:1; 
stroke-linecap:round; stroke-linejoin:round;">
<path d="M4000 4000
L112930 4000
L112930 78680
L4000 78680
L4000 4000
" />
<path d="M4700 4700
L112230 4700
L112230 77980
L4700 77980
L4700 4700
" />
<path d="M25780 4000
L25780 4700
" />
<path d="M15030 4550
L14750 4550
" />
<path d="M14890 4550
L14890 4050
L14840 4120
L14790 4170
L14750 4200
" />
<path d="M25780 78680
L25780 77980
" />
<path d="M15030 78530
L14750 78530
" />
<path d="M14890 78530
L14890 78030
L14840 78100
L14790 78150
L14750 78180
" />
<path d="M47560 4000
L47560 4700
" />
<path d="M36530 4100
L36550 4080
L36600 4050
L36720 4050
L36760 4080
L36790 4100
L36810 4150
L36810 4200
L36790 4270
L36500 4550
L36810 4550
" />
<path d="M47560 78680
L47560 77980
" />
<path d="M36530 78080
L36550 78060
L36600 78030
L36720 78030
L36760 78060
L36790 78080
L36810 78130
L36810 78180
L36790 78250
L36500 78530
L36810 78530
" />
<path d="M69340 4000
L69340 4700
" />
<path d="M58280 4050
L58590 4050
L58420 4240
L58500 4240
L58540 4270
L58570 4290
L58590 4340
L58590 4460
L58570 4500
L58540 4530
L58500 4550
L58350 4550
L58310 4530
L58280 4500
" />
<path d="M69340 78680
L69340 77980
" />
<path d="M58280 78030
L58590 78030
L58420 78220
L58500 78220
L58540 78250
L58570 78270
L58590 78320
L58590 78440
L58570 78480
L58540 78510
L58500 78530
L58350 78530
L58310 78510
L58280 78480
" />
<path d="M91120 4000
L91120 4700
" />
<path d="M80320 4220
L80320 4550
" />
<path d="M80200 4030
L80090 4390
L80390 4390
" />
<path d="M91120 78680
L91120 77980
" />
<path d="M80320 78200
L80320 78530
" />
<path d="M80200 78010
L80090 78370
L80390 78370
" />
<path d="M102130 4050
L101890 4050
L101870 4290
L101890 4270
L101940 4240
L102060 4240
L102100 4270
L102130 4290
L102150 4340
L102150 4460
L102130 4500
L102100 4530
L102060 4550
L101940 4550
L101890 4530
L101870 4500
" />
<path d="M102130 78030
L101890 78030
L101870 78270
L101890 78250
L101940 78220
L102060 78220
L102100 78250
L102130 78270
L102150 78320
L102150 78440
L102130 78480
L102100 78510
L102060 78530
L101940 78530
L101890 78510
L101870 78480
" />
<path d="M4000 28890
L4700 28890
" />
<path d="M4240 16510
L4470 16510
" />
<path d="M4190 16650
L4350 16150
L4520 16650
" />
<path d="M112930 28890
L112230 28890
" />
<path d="M112470 16510
L112700 16510
" />
<path d="M112420 16650
L112580 16150
L112750 16650
" />
<path d="M4000 53780
L4700 53780
" />
<path d="M4390 41280
L4460 41300
L4480 41330
L4500 41380
L4500 41450
L4480 41490
L4460 41520
L4410 41540
L4220 41540
L4220 41040
L4390 41040
L4430 41070
L4460 41090
L4480 41140
L4480 41190
L4460 41230
L4430 41260
L4390 41280
L4220 41280
" />
<path d="M112930 53780
L112230 53780
" />
<path d="M112620 41280
L112690 41300
L112710 41330
L112730 41380
L112730 41450
L112710 41490
L112690 41520
L112640 41540
L112450 41540
L112450 41040
L112620 41040
L112660 41070
L112690 41090
L112710 41140
L112710 41190
L112690 41230
L112660 41260
L112620 41280
L112450 41280
" />
<path d="M4500 66380
L4480 66410
L4410 66430
L4360 66430
L4290 66410
L4240 66360
L4220 66310
L4200 66220
L4200 66150
L4220 66050
L4240 66000
L4290 65960
L4360 65930
L4410 65930
L4480 65960
L4500 65980
" />
<path d="M112730 66380
L112710 66410
L112640 66430
L112590 66430
L112520 66410
L112470 66360
L112450 66310
L112430 66220
L112430 66150
L112450 66050
L112470 66000
L112520 65960
L112590 65930
L112640 65930
L112710 65960
L112730 65980
" />
<path d="M79380 76420
L79450 75820
L79600 75820
L79680 75850
L79730 75910
L79750 75970
L79770 76080
L79760 76170
L79720 76280
L79680 76340
L79610 76390
L79530 76420
L79380 76420
" />
<path d="M80240 76420
L80280 76110
L80250 76050
L80200 76020
L80090 76020
L80020 76050
" />
<path d="M80240 76390
L80180 76420
L80040 76420
L79980 76390
L79960 76340
L79970 76280
L80000 76220
L80070 76190
L80210 76190
L80270 76170
" />
<path d="M80490 76020
L80720 76020
" />
<path d="M80590 75820
L80530 76340
L80550 76390
L80610 76420
L80670 76420
" />
<path d="M81090 76390
L81030 76420
L80920 76420
L80860 76390
L80840 76340
L80870 76110
L80900 76050
L80970 76020
L81080 76020
L81130 76050
L81160 76110
L81150 76170
L80850 76220
" />
<path d="M81370 76370
L81400 76390
L81370 76420
L81340 76390
L81370 76370
L81370 76420
" />
<path d="M81410 76050
L81440 76080
L81410 76110
L81380 76080
L81410 76050
L81410 76110
" />
<path d="M82440 76420
L82090 76420
" />
<path d="M82270 76420
L82340 75820
L82270 75910
L82200 75970
L82140 75990
" />
<path d="M83020 75820
L82910 75820
L82850 75850
L82820 75880
L82740 75970
L82700 76080
L82670 76310
L82690 76370
L82720 76390
L82780 76420
L82890 76420
L82950 76390
L82980 76370
L83020 76310
L83040 76170
L83020 76110
L82990 76080
L82930 76050
L82820 76050
L82760 76080
L82730 76110
L82690 76170
" />
<path d="M83690 76390
L83750 76420
L83870 76420
L83920 76390
L83960 76340
L83960 76310
L83940 76250
L83890 76220
L83800 76220
L83750 76190
L83720 76140
L83730 76110
L83760 76050
L83830 76020
L83920 76020
L83960 76050
" />
<path d="M84440 76390
L84380 76420
L84270 76420
L84210 76390
L84190 76340
L84220 76110
L84250 76050
L84320 76020
L84430 76020
L84480 76050
L84510 76110
L84500 76170
L84200 76220
" />
<path d="M84770 76020
L84690 76620
" />
<path d="M84760 76050
L84830 76020
L84940 76020
L84990 76050
L85020 76080
L85040 76140
L85020 76310
L84980 76370
L84950 76390
L84890 76420
L84780 76420
L84720 76390
" />
<path d="M85760 75880
L85790 75850
L85850 75820
L85990 75820
L86050 75850
L86080 75880
L86100 75940
L86090 75990
L86050 76080
L85670 76420
L86040 76420
" />
<path d="M86480 75820
L86530 75820
L86590 75850
L86620 75880
L86640 75940
L86650 76050
L86640 76190
L86590 76310
L86550 76370
L86520 76390
L86460 76420
L86410 76420
L86350 76390
L86320 76370
L86300 76310
L86290 76190
L86300 76050
L86350 75940
L86390 75880
L86420 75850
L86480 75820
" />
<path d="M87180 76420
L86830 76420
" />
<path d="M87010 76420
L87080 75820
L87010 75910
L86940 75970
L86880 75990
" />
<path d="M87740 76020
L87690 76420
" />
<path d="M87630 75790
L87420 76220
L87800 76220
" />
<path d="M70970 77620
L70970 77020
" />
<path d="M71320 77620
L71060 77280
" />
<path d="M71320 77020
L70970 77370
" />
<path d="M71570 77620
L71570 77220
" />
<path d="M71570 77020
L71540 77050
L71570 77080
L71600 77050
L71570 77020
L71570 77080
" />
<path d="M72210 77570
L72180 77590
L72090 77620
L72030 77620
L71950 77590
L71890 77540
L71860 77480
L71830 77370
L71830 77280
L71860 77170
L71890 77110
L71950 77050
L72030 77020
L72090 77020
L72180 77050
L72210 77080
" />
<path d="M72720 77620
L72720 77310
L72690 77250
L72630 77220
L72520 77220
L72460 77250
" />
<path d="M72720 77590
L72660 77620
L72520 77620
L72460 77590
L72430 77540
L72430 77480
L72460 77420
L72520 77390
L72660 77390
L72720 77370
" />
<path d="M73260 77620
L73260 77020
" />
<path d="M73260 77590
L73200 77620
L73090 77620
L73030 77590
L73000 77570
L72970 77510
L72970 77340
L73000 77280
L73030 77250
L73090 77220
L73200 77220
L73260 77250
" />
<path d="M74000 77310
L74200 77310
" />
<path d="M74290 77620
L74000 77620
L74000 77020
L74290 77020
" />
<path d="M74540 77570
L74570 77590
L74540 77620
L74510 77590
L74540 77570
L74540 77620
" />
<path d="M74830 77620
L74830 77020
L74980 77020
L75060 77050
L75120 77110
L75150 77170
L75180 77280
L75180 77370
L75150 77480
L75120 77540
L75060 77590
L74980 77620
L74830 77620
" />
<path d="M75430 77570
L75460 77590
L75430 77620
L75400 77590
L75430 77570
L75430 77620
" />
<path d="M75690 77450
L75980 77450
" />
<path d="M75640 77620
L75840 77020
L76040 77620
" />
<path d="M76230 77570
L76260 77590
L76230 77620
L76200 77590
L76230 77570
L76230 77620
" />
<path d="M104530 76420
L104360 76140
" />
<path d="M104180 76420
L104250 75820
L104480 75820
L104540 75850
L104570 75880
L104590 75940
L104580 76020
L104540 76080
L104510 76110
L104440 76140
L104210 76140
" />
<path d="M105010 76390
L104950 76420
L104840 76420
L104780 76390
L104760 76340
L104790 76110
L104820 76050
L104890 76020
L105000 76020
L105050 76050
L105080 76110
L105070 76170
L104770 76220
" />
<path d="M105290 76020
L105380 76420
L105570 76020
" />
<path d="M105750 76370
L105780 76390
L105750 76420
L105720 76390
L105750 76370
L105750 76420
" />
<path d="M105790 76050
L105820 76080
L105790 76110
L105760 76080
L105790 76050
L105790 76110
" />
<path d="M70940 76390
L71030 76420
L71170 76420
L71230 76390
L71260 76370
L71290 76310
L71290 76250
L71260 76190
L71230 76170
L71170 76140
L71060 76110
L71000 76080
L70970 76050
L70940 75990
L70940 75940
L70970 75880
L71000 75850
L71060 75820
L71200 75820
L71290 75850
" />
<path d="M71540 76420
L71540 76020
" />
<path d="M71540 75820
L71510 75850
L71540 75880
L71570 75850
L71540 75820
L71540 75880
" />
<path d="M71780 76020
L72090 76020
L71780 76420
L72090 76420
" />
<path d="M72550 76390
L72490 76420
L72380 76420
L72320 76390
L72290 76340
L72290 76110
L72320 76050
L72380 76020
L72490 76020
L72550 76050
L72580 76110
L72580 76170
L72290 76220
" />
<path d="M72830 76370
L72860 76390
L72830 76420
L72800 76390
L72830 76370
L72830 76420
" />
<path d="M72830 76050
L72860 76080
L72830 76110
L72800 76080
L72830 76050
L72830 76110
" />
<path d="M73550 76250
L73840 76250
" />
<path d="M73500 76420
L73700 75820
L73900 76420
" />
<path d="M74350 76020
L74350 76420
" />
<path d="M74210 75790
L74060 76220
L74440 76220
" />
<path d="M104170 77620
L104170 77020
" />
<path d="M104720 77620
L104720 77020
" />
<path d="M104720 77590
L104660 77620
L104550 77620
L104490 77590
L104460 77570
L104430 77510
L104430 77340
L104460 77280
L104490 77250
L104550 77220
L104660 77220
L104720 77250
" />
<path d="M105000 77570
L105030 77590
L105000 77620
L104970 77590
L105000 77570
L105000 77620
" />
<path d="M105000 77250
L105030 77280
L105000 77310
L104970 77280
L105000 77250
L105000 77310
" />
<path d="M106070 77620
L105720 77620
" />
<path d="M105900 77620
L105900 77020
L105840 77110
L105780 77170
L105720 77190
" />
<path d="M106750 76990
L106240 77770
" />
<path d="M107270 77620
L106920 77620
" />
<path d="M107100 77620
L107100 77020
L107040 77110
L106980 77170
L106920 77190
" />
<path d="M70970 74620
L71310 74620
" />
<path d="M71070 75220
L71140 74620
" />
<path d="M71440 75220
L71490 74820
" />
<path d="M71510 74620
L71480 74650
L71510 74680
L71540 74650
L71510 74620
L71510 74680
" />
<path d="M71700 74820
L71930 74820
" />
<path d="M71800 74620
L71740 75140
L71760 75190
L71820 75220
L71880 75220
" />
<path d="M72160 75220
L72100 75190
L72080 75140
L72140 74620
" />
<path d="M72610 75190
L72550 75220
L72440 75220
L72380 75190
L72360 75140
L72390 74910
L72420 74850
L72490 74820
L72600 74820
L72650 74850
L72680 74910
L72670 74970
L72370 75020
" />
<path d="M72890 75170
L72920 75190
L72890 75220
L72860 75190
L72890 75170
L72890 75220
" />
<path d="M72930 74850
L72960 74880
L72930 74910
L72900 74880
L72930 74850
L72930 74910
" />
<path d="M71170 72510
L70970 72510
" />
<path d="M70970 72820
L70970 72220
L71260 72220
" />
<path d="M71480 72820
L71480 72420
" />
<path d="M71480 72220
L71450 72250
L71480 72280
L71510 72250
L71480 72220
L71480 72280
" />
<path d="M71860 72820
L71800 72790
L71770 72740
L71770 72220
" />
<path d="M72310 72790
L72250 72820
L72140 72820
L72080 72790
L72050 72740
L72050 72510
L72080 72450
L72140 72420
L72250 72420
L72310 72450
L72340 72510
L72340 72570
L72050 72620
" />
<path d="M72590 72770
L72620 72790
L72590 72820
L72560 72790
L72590 72770
L72590 72820
" />
<path d="M72590 72450
L72620 72480
L72590 72510
L72560 72480
L72590 72450
L72590 72510
" />
<path d="M73310 72790
L73370 72820
L73490 72820
L73540 72790
L73570 72740
L73570 72710
L73540 72650
L73490 72620
L73400 72620
L73340 72590
L73310 72540
L73310 72510
L73340 72450
L73400 72420
L73490 72420
L73540 72450
" />
<path d="M73920 72820
L73860 72790
L73830 72770
L73800 72710
L73800 72540
L73830 72480
L73860 72450
L73920 72420
L74000 72420
L74060 72450
L74090 72480
L74120 72540
L74120 72710
L74090 72770
L74060 72790
L74000 72820
L73920 72820
" />
<path d="M74460 72820
L74400 72790
L74370 72740
L74370 72220
" />
<path d="M74940 72820
L74940 72510
L74910 72450
L74850 72420
L74740 72420
L74680 72450
" />
<path d="M74940 72790
L74880 72820
L74740 72820
L74680 72790
L74650 72740
L74650 72680
L74680 72620
L74740 72590
L74880 72590
L74940 72570
" />
<path d="M75220 72820
L75220 72420
" />
<path d="M75220 72540
L75250 72480
L75280 72450
L75340 72420
L75390 72420
" />
<path d="M75590 72590
L76050 72590
" />
<path d="M76590 72790
L76530 72820
L76420 72820
L76360 72790
L76330 72770
L76300 72710
L76300 72540
L76330 72480
L76360 72450
L76420 72420
L76530 72420
L76590 72450
" />
<path d="M76840 72820
L76840 72220
" />
<path d="M77100 72820
L77100 72510
L77070 72450
L77010 72420
L76930 72420
L76870 72450
L76840 72480
" />
<path d="M77640 72820
L77640 72510
L77610 72450
L77550 72420
L77440 72420
L77380 72450
" />
<path d="M77640 72790
L77580 72820
L77440 72820
L77380 72790
L77350 72740
L77350 72680
L77380 72620
L77440 72590
L77580 72590
L77640 72570
" />
<path d="M77920 72820
L77920 72420
" />
<path d="M77920 72540
L77950 72480
L77980 72450
L78040 72420
L78090 72420
" />
<path d="M78550 72420
L78550 72910
L78520 72970
L78490 72990
L78440 73020
L78350 73020
L78290 72990
" />
<path d="M78550 72790
L78490 72820
L78380 72820
L78320 72790
L78290 72770
L78260 72710
L78260 72540
L78290 72480
L78320 72450
L78380 72420
L78490 72420
L78550 72450
" />
<path d="M78830 72820
L78830 72420
" />
<path d="M78830 72220
L78800 72250
L78830 72280
L78860 72250
L78830 72220
L78830 72280
" />
<path d="M79120 72420
L79120 72820
" />
<path d="M79120 72480
L79150 72450
L79210 72420
L79290 72420
L79350 72450
L79380 72510
L79380 72820
" />
<path d="M79920 72420
L79920 72910
L79890 72970
L79860 72990
L79810 73020
L79720 73020
L79660 72990
" />
<path d="M79920 72790
L79860 72820
L79750 72820
L79690 72790
L79660 72770
L79630 72710
L79630 72540
L79660 72480
L79690 72450
L79750 72420
L79860 72420
L79920 72450
" />
<path d="M80200 72590
L80660 72590
" />
<path d="M81200 72790
L81140 72820
L81030 72820
L80970 72790
L80940 72770
L80910 72710
L80910 72540
L80940 72480
L80970 72450
L81030 72420
L81140 72420
L81200 72450
" />
<path d="M81450 72820
L81450 72420
" />
<path d="M81450 72220
L81420 72250
L81450 72280
L81480 72250
L81450 72220
L81450 72280
" />
<path d="M81740 72820
L81740 72420
" />
<path d="M81740 72540
L81770 72480
L81800 72450
L81860 72420
L81910 72420
" />
<path d="M82370 72790
L82310 72820
L82200 72820
L82140 72790
L82110 72770
L82080 72710
L82080 72540
L82110 72480
L82140 72450
L82200 72420
L82310 72420
L82370 72450
" />
<path d="M82880 72420
L82880 72820
" />
<path d="M82620 72420
L82620 72740
L82650 72790
L82710 72820
L82790 72820
L82850 72790
L82880 72770
" />
<path d="M83160 72820
L83160 72420
" />
<path d="M83160 72220
L83130 72250
L83160 72280
L83190 72250
L83160 72220
L83160 72280
" />
<path d="M83370 72420
L83600 72420
" />
<path d="M83450 72220
L83450 72740
L83480 72790
L83540 72820
L83600 72820
" />
<path d="M83790 72770
L83820 72790
L83790 72820
L83760 72790
L83790 72770
L83790 72820
" />
<path d="M84050 72790
L84110 72820
L84230 72820
L84280 72790
L84310 72740
L84310 72710
L84280 72650
L84230 72620
L84140 72620
L84080 72590
L84050 72540
L84050 72510
L84080 72450
L84140 72420
L84230 72420
L84280 72450
" />
<path d="M84830 72790
L84770 72820
L84660 72820
L84600 72790
L84570 72770
L84540 72710
L84540 72540
L84570 72480
L84600 72450
L84660 72420
L84770 72420
L84830 72450
" />
<path d="M85080 72820
L85080 72220
" />
<path d="M85340 72820
L85340 72510
L85310 72450
L85250 72420
L85170 72420
L85110 72450
L85080 72480
" />
<path d="M70940 73990
L71030 74020
L71170 74020
L71230 73990
L71260 73970
L71290 73910
L71290 73850
L71260 73790
L71230 73770
L71170 73740
L71060 73710
L71000 73680
L70970 73650
L70940 73590
L70940 73540
L70970 73480
L71000 73450
L71060 73420
L71200 73420
L71290 73450
" />
<path d="M71540 74020
L71540 73420
" />
<path d="M71800 74020
L71800 73710
L71770 73650
L71710 73620
L71630 73620
L71570 73650
L71540 73680
" />
<path d="M72310 73990
L72250 74020
L72140 74020
L72080 73990
L72050 73940
L72050 73710
L72080 73650
L72140 73620
L72250 73620
L72310 73650
L72340 73710
L72340 73770
L72050 73820
" />
<path d="M72820 73990
L72760 74020
L72650 74020
L72590 73990
L72560 73940
L72560 73710
L72590 73650
L72650 73620
L72760 73620
L72820 73650
L72850 73710
L72850 73770
L72560 73820
" />
<path d="M73020 73620
L73250 73620
" />
<path d="M73100 73420
L73100 73940
L73130 73990
L73190 74020
L73250 74020
" />
<path d="M73440 73970
L73470 73990
L73440 74020
L73410 73990
L73440 73970
L73440 74020
" />
<path d="M73440 73650
L73470 73680
L73440 73710
L73410 73680
L73440 73650
L73440 73710
" />
<path d="M74620 73390
L74110 74170
" />
<path d="M70230 71980
L70230 77980
" />
<path d="M70230 71980
L112230 71980
" />
<path d="M70230 71980
L112230 71980
" />
<path d="M70230 74380
L112230 74380
" />
<path d="M103430 75580
L103430 77980
" />
<path d="M70230 76780
L112230 76780
" />
<path d="M70230 75580
L112230 75580
" />
<path d="M76830 75580
L76830 76780
" />
</g>
<g style="fill:#A00000; fill-opacity:0.0; 
stroke:#A00000; stroke-width:0; stroke-opacity:1; 
stroke-linecap:round; stroke-linejoin:round;">
</g>
<g style="fill:#A00000; fill-opacity:0.0; 
stroke:#A00000; stroke-width:60; stroke-opacity:1; 
stroke-linecap:round; stroke-linejoin:round;">
<circle cx="22500" cy="22000" r="1500" /> 
<polyline fill="none;"
points="21500,22000
21000,22000
" /> 
<polyline fill="none;"
points="21500,21100
21500,22890
" /> 
<polyline fill="none;"
points="22190,21500
22190,22500
" /> 
<polyline fill="none;"
points="22890,21100
22890,22890
" /> 
<polyline fill="none;"
points="23500,22000
24000,22000
" /> 
<polyline fill="none;"
points="23500,21500
23500,22500
" /> 
<path d="M21000 22000
L19500 22000
" />
</g>
<g style="fill:#00A0A0; fill-opacity:0.0; 
stroke:#00A0A0; stroke-width:60; stroke-opacity:1; 
stroke-linecap:round; stroke-linejoin:round;">
<path d="M20060 21660
L20440 21660
" />
<path d="M20250 21850
L20250 21470
" />
</g>
<g style="fill:#A00000; fill-opacity:0.0; 
stroke:#A00000; stroke-width:60; stroke-opacity:1; 
stroke-linecap:round; stroke-linejoin:round;">
<path d="M20390 22550
L20110 22550
" />
<path d="M20250 22550
L20250 22050
L20200 22120
L20150 22170
L20110 22200
" />
<path d="M24000 22000
L25500 22000
" />
</g>
<g style="fill:#00A0A0; fill-opacity:0.0; 
stroke:#00A0A0; stroke-width:60; stroke-opacity:1; 
stroke-linecap:round; stroke-linejoin:round;">
<path d="M24560 21660
L24940 21660
" />
</g>
<g style="fill:#A00000; fill-opacity:0.0; 
stroke:#A00000; stroke-width:60; stroke-opacity:1; 
stroke-linecap:round; stroke-linejoin:round;">
<path d="M24610 22100
L24630 22080
L24680 22050
L24800 22050
L24840 22080
L24870 22100
L24890 22150
L24890 22200
L24870 22270
L24580 22550
L24890 22550
" />
</g>
<g style="fill:#00A0A0; fill-opacity:0.0; 
stroke:#00A0A0; stroke-width:60; stroke-opacity:1; 
stroke-linecap:round; stroke-linejoin:round;">
<path d="M22140 19910
L22210 19930
L22230 19960
L22250 20010
L22250 20080
L22230 20120
L22210 20150
L22160 20170
L21970 20170
L21970 19670
L22140 19670
L22180 19700
L22210 19720
L22230 19770
L22230 19820
L22210 19860
L22180 19890
L22140 19910
L21970 19910
" />
<path d="M22400 19670
L22680 19670
" />
<path d="M22540 20170
L22540 19670
" />
<path d="M22920 20120
L22940 20150
L22920 20170
L22900 20150
L22920 20120
L22920 20170
" />
<path d="M22830 19700
L22870 19670
L22990 19670
L23040 19700
L23060 19740
L23060 19790
L23040 19840
L23020 19860
L22970 19890
L22940 19910
L22920 19960
L22920 19980
" />
<path d="M19780 23810
L19850 23830
L19870 23860
L19890 23910
L19890 23980
L19870 24020
L19850 24050
L19800 24070
L19610 24070
L19610 23570
L19780 23570
L19820 23600
L19850 23620
L19870 23670
L19870 23720
L19850 23760
L19820 23790
L19780 23810
L19610 23810
" />
<path d="M20090 23930
L20320 23930
" />
<path d="M20040 24070
L20200 23570
L20370 24070
" />
<path d="M20470 23570
L20750 23570
" />
<path d="M20610 24070
L20610 23570
" />
<path d="M20850 23570
L21130 23570
" />
<path d="M20990 24070
L20990 23570
" />
<path d="M21300 23810
L21470 23810
" />
<path d="M21540 24070
L21300 24070
L21300 23570
L21540 23570
" />
<path d="M22030 24070
L21870 23830
" />
<path d="M21750 24070
L21750 23570
L21940 23570
L21990 23600
L22010 23620
L22030 23670
L22030 23740
L22010 23790
L21990 23810
L21940 23830
L21750 23830
" />
<path d="M22340 23830
L22340 24070
" />
<path d="M22180 23570
L22340 23830
L22510 23570
" />
<path d="M22680 23880
L23060 23880
" />
<path d="M23280 24050
L23350 24070
L23470 24070
L23510 24050
L23540 24020
L23560 23980
L23560 23930
L23540 23880
L23510 23860
L23470 23830
L23370 23810
L23320 23790
L23300 23760
L23280 23720
L23280 23670
L23300 23620
L23320 23600
L23370 23570
L23490 23570
L23560 23600
" />
<path d="M23870 23570
L23970 23570
L24020 23600
L24060 23640
L24090 23740
L24090 23910
L24060 24000
L24020 24050
L23970 24070
L23870 24070
L23830 24050
L23780 24000
L23760 23910
L23760 23740
L23780 23640
L23830 23600
L23870 23570
" />
<path d="M24540 24070
L24300 24070
L24300 23570
" />
<path d="M24680 23930
L24910 23930
" />
<path d="M24630 24070
L24790 23570
L24960 24070
" />
<path d="M25410 24070
L25250 23830
" />
<path d="M25130 24070
L25130 23570
L25320 23570
L25370 23600
L25390 23620
L25410 23670
L25410 23740
L25390 23790
L25370 23810
L25320 23830
L25130 23830
" />
</g> 
</svg>
